<svg width="60" height="60" viewBox="0 0 60 60" fill="none" xmlns="http://www.w3.org/2000/svg">
<g filter="url(#filter0_b_284_1434)">
<mask id="path-1-inside-1_284_1434" fill="white">
<path fill-rule="evenodd" clip-rule="evenodd" d="M30 60C46.5685 60 60 46.5685 60 30C60 13.4315 46.5685 0 30 0C13.4315 0 0 13.4315 0 30C0 46.5685 13.4315 60 30 60ZM46.953 13.3L47.94 13.457L47.9402 13.4557L47.942 13.456L47.936 13.493L47.919 13.599C47.8192 14.2125 47.7145 14.8252 47.605 15.437C47.3386 16.9416 47.0479 18.4418 46.733 19.937C46.377 21.618 45.963 23.38 45.524 24.855C45.3292 25.5296 45.0999 26.1939 44.837 26.845C44.609 27.395 44.339 27.929 44.011 28.305C43.309 29.107 42.216 29.358 41.261 29.422C40.265 29.489 39.161 29.368 38.168 29.192C37.2824 29.0325 36.4053 28.8289 35.54 28.582L35.4308 28.551C34.4105 30.2004 33.5308 31.8484 32.93 33.368C32.8817 33.4901 32.8098 33.6015 32.7184 33.6959C32.627 33.7902 32.5179 33.8656 32.3974 33.9178C32.2769 33.97 32.1472 33.9979 32.0159 34C31.8846 34.0021 31.7541 33.9783 31.632 33.93C31.5099 33.8817 31.3985 33.8098 31.3041 33.7184C31.2098 33.627 31.1344 33.5179 31.0822 33.3974C31.03 33.2769 31.0021 33.1472 31 33.0159C30.9979 32.8846 31.0217 32.7541 31.07 32.632C31.714 31.0031 32.6416 29.2619 33.7068 27.5361L33.7 27.524C33.5599 27.2792 33.4249 27.0314 33.295 26.781C32.884 25.9938 32.5252 25.1803 32.221 24.346C31.883 23.402 31.593 22.321 31.548 21.275C31.504 20.233 31.698 19.102 32.474 18.215C33.171 17.419 34.485 16.686 35.866 16.052C37.297 15.393 38.981 14.761 40.576 14.214C42.5517 13.5393 44.5472 12.9243 46.56 12.37L46.66 12.342L46.695 12.332L46.6954 12.3336L46.694 12.334L46.953 13.3ZM46.955 13.299L46.6954 12.3336L48.183 11.934L47.9402 13.4557L46.955 13.299ZM38.513 27.224C37.8599 27.1043 37.2116 26.9602 36.5696 26.7919C38.0803 24.5535 39.7623 22.3974 41.26 20.65C41.3454 20.5502 41.4102 20.4346 41.4509 20.3097C41.4916 20.1848 41.5073 20.0531 41.497 19.9222C41.4868 19.7913 41.4509 19.6636 41.3914 19.5466C41.3318 19.4295 41.2498 19.3254 41.15 19.24V19.241C40.9487 19.0684 40.6871 18.9827 40.4226 19.003C40.1582 19.0233 39.9127 19.1477 39.74 19.349C38.2344 21.106 36.5127 23.3051 34.9462 25.6215C34.6278 24.9882 34.3466 24.3366 34.104 23.67C33.798 22.819 33.579 21.952 33.547 21.189C33.514 20.422 33.672 19.883 33.979 19.533C34.363 19.094 35.305 18.511 36.701 17.869C38.046 17.25 39.659 16.643 41.225 16.106C42.788 15.57 44.286 15.109 45.395 14.782L45.704 14.692C45.4232 16.308 45.1138 17.9189 44.776 19.524C44.424 21.183 44.023 22.886 43.606 24.286C43.4311 24.8938 43.2251 25.4923 42.989 26.079C42.779 26.585 42.609 26.869 42.505 26.989C42.342 27.175 41.936 27.373 41.127 27.427C40.361 27.479 39.437 27.387 38.513 27.224ZM14.774 15.575L15.016 17.097L15.021 17.127L15.035 17.214L15.089 17.54C15.3588 19.1575 15.6626 20.7692 16 22.374C16.29 23.742 16.628 25.179 16.986 26.384C17.166 26.986 17.354 27.547 17.551 28.02C17.738 28.47 17.967 28.929 18.255 29.257C18.875 29.967 19.828 30.177 20.617 30.229C21.449 30.285 22.362 30.184 23.177 30.041C23.8529 29.9196 24.5227 29.7671 25.1841 29.5838C25.9507 30.8808 26.6088 32.1682 27.067 33.359C27.1668 33.6 27.3568 33.7926 27.5965 33.8955C27.8362 33.9984 28.1066 34.0036 28.3501 33.9099C28.5936 33.8162 28.7908 33.6311 28.8997 33.394C29.0086 33.157 29.0205 32.8867 28.933 32.641C28.4353 31.3472 27.7342 29.9725 26.9285 28.6052C27.0463 28.3995 27.1598 28.1914 27.269 27.981C27.533 27.473 27.87 26.764 28.152 25.98C28.43 25.204 28.672 24.305 28.709 23.429C28.747 22.556 28.585 21.582 27.911 20.812C27.315 20.13 26.212 19.522 25.092 19.006C23.921 18.467 22.546 17.951 21.247 17.506C19.6381 16.9565 18.0131 16.4556 16.374 16.004L16.292 15.982L16.263 15.974L16.264 15.975L16.2628 15.9747L14.774 15.575ZM22.785 22.615C23.7425 23.829 24.7558 25.2089 25.7034 26.6458C25.914 26.2087 26.1027 25.7612 26.269 25.305C26.514 24.622 26.686 23.937 26.711 23.343C26.737 22.745 26.611 22.363 26.406 22.128C26.123 21.806 25.393 21.346 24.256 20.823C23.172 20.324 21.868 19.833 20.598 19.398C19.4917 19.0203 18.3774 18.6662 17.256 18.336L17.26 18.361C17.43 19.321 17.672 20.617 17.957 21.96C18.242 23.306 18.567 24.683 18.903 25.814C19.072 26.38 19.238 26.869 19.398 27.253C19.568 27.66 19.696 27.867 19.76 27.941C19.842 28.034 20.107 28.191 20.751 28.234C21.352 28.274 22.086 28.202 22.83 28.071C23.2472 27.9958 23.6618 27.9078 24.0732 27.8068C23.1598 26.4176 22.1687 25.0633 21.215 23.853C21.1335 23.7499 21.0732 23.6318 21.0374 23.5054C21.0016 23.379 20.9911 23.2468 21.0064 23.1163C21.0217 22.9858 21.0626 22.8597 21.1267 22.745C21.1908 22.6303 21.2769 22.5294 21.38 22.448C21.5884 22.284 21.8543 22.2095 22.1176 22.2408C22.3809 22.2721 22.6209 22.4067 22.785 22.615ZM22.672 37.071C22.704 37.057 22.828 37.021 23.082 37.007C23.3387 36.9951 23.5959 36.9998 23.852 37.021C24.1531 37.0448 24.453 37.0815 24.751 37.131L24.804 37.14L30.401 38.386L30.435 38.396C30.7266 38.4813 31.0211 38.5564 31.318 38.621C31.8632 38.7413 32.4168 38.8195 32.974 38.855C32.9333 38.933 32.8879 39.0085 32.838 39.081C32.709 39.266 32.571 39.404 32.466 39.479C32.125 39.72 31.854 39.819 31.696 39.859C31.6442 39.8732 31.5914 39.8832 31.538 39.889H31.528L26.958 39.834L26.768 41.818L26.814 41.827L26.944 41.85C27.6158 41.9691 28.2885 42.0831 28.962 42.192C30.134 42.382 31.555 42.592 32.365 42.642C32.955 42.677 33.632 42.495 34.242 42.292C34.8745 42.0808 35.5873 41.7913 36.2985 41.5025L36.307 41.499L36.327 41.49C37.78 40.899 39.235 40.313 40.453 40.113C40.993 40.024 41.333 40.091 41.533 40.178C41.6953 40.2426 41.8291 40.3632 41.91 40.518C42.082 40.849 41.976 41.201 41.876 41.302L41.848 41.326C41.8187 41.3502 41.7887 41.3735 41.758 41.396C41.68 41.453 41.578 41.523 41.45 41.606C41.193 41.772 40.858 41.97 40.463 42.192C39.676 42.635 38.686 43.152 37.676 43.66C35.634 44.687 33.609 45.626 33.056 45.827C32.345 46.085 31.427 46.015 30.033 45.875H30.028L29.9841 45.8706L29.9839 45.8706C29.6336 45.8359 29.2598 45.7988 28.876 45.77C27.459 45.663 26.377 45.325 25.209 44.957L25.182 44.948C23.936 44.555 22.59 44.131 20.798 44.06C20.371 44.042 19.386 44.072 18.558 44.102C18.365 44.109 18.176 44.116 18 44.124V38.721L18.028 38.711L18.1211 38.6798C18.5422 38.5385 19.0878 38.3553 19.655 38.161C20.843 37.756 22.219 37.276 22.672 37.071ZM18 36.6108C18.3362 36.4975 18.6722 36.3836 19.008 36.269C20.252 35.844 21.506 35.403 21.848 35.249C22.215 35.083 22.632 35.029 22.966 35.009C23.321 34.989 23.686 35.004 24.005 35.028C24.389 35.0581 24.7714 35.1058 25.151 35.171L25.172 35.175H25.178L25.18 35.176H25.182L25.1818 35.1771L25.181 35.177L25 36.16L25.1818 35.1771L25.199 35.18L30.917 36.452L30.959 36.465L30.967 36.468L31.005 36.479L31.163 36.524C31.302 36.562 31.502 36.614 31.74 36.666C32.226 36.771 32.834 36.868 33.396 36.868C33.959 36.868 34.571 37.078 34.901 37.676C35.183 38.188 35.113 38.742 35.014 39.108C34.9221 39.4316 34.7851 39.7406 34.607 40.026C34.911 39.906 35.234 39.776 35.573 39.638L35.635 39.612L35.6425 39.6089C37.019 39.0496 38.6677 38.3796 40.128 38.139C41.828 37.861 43.103 38.471 43.686 39.599C44.2 40.594 44.086 41.906 43.301 42.704C43.104 42.904 42.811 43.107 42.531 43.288C42.1744 43.5137 41.8116 43.7295 41.443 43.935C40.618 44.399 39.597 44.932 38.573 45.447C36.551 46.464 34.421 47.459 33.737 47.707C32.551 48.137 31.179 48 29.96 47.878L29.833 47.865C29.4641 47.8272 29.0947 47.7938 28.725 47.765C27.0665 47.6391 25.7952 47.2387 24.6341 46.873L24.631 46.872L24.606 46.864C23.356 46.47 22.23 46.119 20.718 46.058C20.386 46.045 19.492 46.069 18.63 46.101C18.42 46.1086 18.21 46.1166 18 46.125V48H12V35H18V36.6108Z"/>
</mask>
<path fill-rule="evenodd" clip-rule="evenodd" d="M30 60C46.5685 60 60 46.5685 60 30C60 13.4315 46.5685 0 30 0C13.4315 0 0 13.4315 0 30C0 46.5685 13.4315 60 30 60ZM46.953 13.3L47.94 13.457L47.9402 13.4557L47.942 13.456L47.936 13.493L47.919 13.599C47.8192 14.2125 47.7145 14.8252 47.605 15.437C47.3386 16.9416 47.0479 18.4418 46.733 19.937C46.377 21.618 45.963 23.38 45.524 24.855C45.3292 25.5296 45.0999 26.1939 44.837 26.845C44.609 27.395 44.339 27.929 44.011 28.305C43.309 29.107 42.216 29.358 41.261 29.422C40.265 29.489 39.161 29.368 38.168 29.192C37.2824 29.0325 36.4053 28.8289 35.54 28.582L35.4308 28.551C34.4105 30.2004 33.5308 31.8484 32.93 33.368C32.8817 33.4901 32.8098 33.6015 32.7184 33.6959C32.627 33.7902 32.5179 33.8656 32.3974 33.9178C32.2769 33.97 32.1472 33.9979 32.0159 34C31.8846 34.0021 31.7541 33.9783 31.632 33.93C31.5099 33.8817 31.3985 33.8098 31.3041 33.7184C31.2098 33.627 31.1344 33.5179 31.0822 33.3974C31.03 33.2769 31.0021 33.1472 31 33.0159C30.9979 32.8846 31.0217 32.7541 31.07 32.632C31.714 31.0031 32.6416 29.2619 33.7068 27.5361L33.7 27.524C33.5599 27.2792 33.4249 27.0314 33.295 26.781C32.884 25.9938 32.5252 25.1803 32.221 24.346C31.883 23.402 31.593 22.321 31.548 21.275C31.504 20.233 31.698 19.102 32.474 18.215C33.171 17.419 34.485 16.686 35.866 16.052C37.297 15.393 38.981 14.761 40.576 14.214C42.5517 13.5393 44.5472 12.9243 46.56 12.37L46.66 12.342L46.695 12.332L46.6954 12.3336L46.694 12.334L46.953 13.3ZM46.955 13.299L46.6954 12.3336L48.183 11.934L47.9402 13.4557L46.955 13.299ZM38.513 27.224C37.8599 27.1043 37.2116 26.9602 36.5696 26.7919C38.0803 24.5535 39.7623 22.3974 41.26 20.65C41.3454 20.5502 41.4102 20.4346 41.4509 20.3097C41.4916 20.1848 41.5073 20.0531 41.497 19.9222C41.4868 19.7913 41.4509 19.6636 41.3914 19.5466C41.3318 19.4295 41.2498 19.3254 41.15 19.24V19.241C40.9487 19.0684 40.6871 18.9827 40.4226 19.003C40.1582 19.0233 39.9127 19.1477 39.74 19.349C38.2344 21.106 36.5127 23.3051 34.9462 25.6215C34.6278 24.9882 34.3466 24.3366 34.104 23.67C33.798 22.819 33.579 21.952 33.547 21.189C33.514 20.422 33.672 19.883 33.979 19.533C34.363 19.094 35.305 18.511 36.701 17.869C38.046 17.25 39.659 16.643 41.225 16.106C42.788 15.57 44.286 15.109 45.395 14.782L45.704 14.692C45.4232 16.308 45.1138 17.9189 44.776 19.524C44.424 21.183 44.023 22.886 43.606 24.286C43.4311 24.8938 43.2251 25.4923 42.989 26.079C42.779 26.585 42.609 26.869 42.505 26.989C42.342 27.175 41.936 27.373 41.127 27.427C40.361 27.479 39.437 27.387 38.513 27.224ZM14.774 15.575L15.016 17.097L15.021 17.127L15.035 17.214L15.089 17.54C15.3588 19.1575 15.6626 20.7692 16 22.374C16.29 23.742 16.628 25.179 16.986 26.384C17.166 26.986 17.354 27.547 17.551 28.02C17.738 28.47 17.967 28.929 18.255 29.257C18.875 29.967 19.828 30.177 20.617 30.229C21.449 30.285 22.362 30.184 23.177 30.041C23.8529 29.9196 24.5227 29.7671 25.1841 29.5838C25.9507 30.8808 26.6088 32.1682 27.067 33.359C27.1668 33.6 27.3568 33.7926 27.5965 33.8955C27.8362 33.9984 28.1066 34.0036 28.3501 33.9099C28.5936 33.8162 28.7908 33.6311 28.8997 33.394C29.0086 33.157 29.0205 32.8867 28.933 32.641C28.4353 31.3472 27.7342 29.9725 26.9285 28.6052C27.0463 28.3995 27.1598 28.1914 27.269 27.981C27.533 27.473 27.87 26.764 28.152 25.98C28.43 25.204 28.672 24.305 28.709 23.429C28.747 22.556 28.585 21.582 27.911 20.812C27.315 20.13 26.212 19.522 25.092 19.006C23.921 18.467 22.546 17.951 21.247 17.506C19.6381 16.9565 18.0131 16.4556 16.374 16.004L16.292 15.982L16.263 15.974L16.264 15.975L16.2628 15.9747L14.774 15.575ZM22.785 22.615C23.7425 23.829 24.7558 25.2089 25.7034 26.6458C25.914 26.2087 26.1027 25.7612 26.269 25.305C26.514 24.622 26.686 23.937 26.711 23.343C26.737 22.745 26.611 22.363 26.406 22.128C26.123 21.806 25.393 21.346 24.256 20.823C23.172 20.324 21.868 19.833 20.598 19.398C19.4917 19.0203 18.3774 18.6662 17.256 18.336L17.26 18.361C17.43 19.321 17.672 20.617 17.957 21.96C18.242 23.306 18.567 24.683 18.903 25.814C19.072 26.38 19.238 26.869 19.398 27.253C19.568 27.66 19.696 27.867 19.76 27.941C19.842 28.034 20.107 28.191 20.751 28.234C21.352 28.274 22.086 28.202 22.83 28.071C23.2472 27.9958 23.6618 27.9078 24.0732 27.8068C23.1598 26.4176 22.1687 25.0633 21.215 23.853C21.1335 23.7499 21.0732 23.6318 21.0374 23.5054C21.0016 23.379 20.9911 23.2468 21.0064 23.1163C21.0217 22.9858 21.0626 22.8597 21.1267 22.745C21.1908 22.6303 21.2769 22.5294 21.38 22.448C21.5884 22.284 21.8543 22.2095 22.1176 22.2408C22.3809 22.2721 22.6209 22.4067 22.785 22.615ZM22.672 37.071C22.704 37.057 22.828 37.021 23.082 37.007C23.3387 36.9951 23.5959 36.9998 23.852 37.021C24.1531 37.0448 24.453 37.0815 24.751 37.131L24.804 37.14L30.401 38.386L30.435 38.396C30.7266 38.4813 31.0211 38.5564 31.318 38.621C31.8632 38.7413 32.4168 38.8195 32.974 38.855C32.9333 38.933 32.8879 39.0085 32.838 39.081C32.709 39.266 32.571 39.404 32.466 39.479C32.125 39.72 31.854 39.819 31.696 39.859C31.6442 39.8732 31.5914 39.8832 31.538 39.889H31.528L26.958 39.834L26.768 41.818L26.814 41.827L26.944 41.85C27.6158 41.9691 28.2885 42.0831 28.962 42.192C30.134 42.382 31.555 42.592 32.365 42.642C32.955 42.677 33.632 42.495 34.242 42.292C34.8745 42.0808 35.5873 41.7913 36.2985 41.5025L36.307 41.499L36.327 41.49C37.78 40.899 39.235 40.313 40.453 40.113C40.993 40.024 41.333 40.091 41.533 40.178C41.6953 40.2426 41.8291 40.3632 41.91 40.518C42.082 40.849 41.976 41.201 41.876 41.302L41.848 41.326C41.8187 41.3502 41.7887 41.3735 41.758 41.396C41.68 41.453 41.578 41.523 41.45 41.606C41.193 41.772 40.858 41.97 40.463 42.192C39.676 42.635 38.686 43.152 37.676 43.66C35.634 44.687 33.609 45.626 33.056 45.827C32.345 46.085 31.427 46.015 30.033 45.875H30.028L29.9841 45.8706L29.9839 45.8706C29.6336 45.8359 29.2598 45.7988 28.876 45.77C27.459 45.663 26.377 45.325 25.209 44.957L25.182 44.948C23.936 44.555 22.59 44.131 20.798 44.06C20.371 44.042 19.386 44.072 18.558 44.102C18.365 44.109 18.176 44.116 18 44.124V38.721L18.028 38.711L18.1211 38.6798C18.5422 38.5385 19.0878 38.3553 19.655 38.161C20.843 37.756 22.219 37.276 22.672 37.071ZM18 36.6108C18.3362 36.4975 18.6722 36.3836 19.008 36.269C20.252 35.844 21.506 35.403 21.848 35.249C22.215 35.083 22.632 35.029 22.966 35.009C23.321 34.989 23.686 35.004 24.005 35.028C24.389 35.0581 24.7714 35.1058 25.151 35.171L25.172 35.175H25.178L25.18 35.176H25.182L25.1818 35.1771L25.181 35.177L25 36.16L25.1818 35.1771L25.199 35.18L30.917 36.452L30.959 36.465L30.967 36.468L31.005 36.479L31.163 36.524C31.302 36.562 31.502 36.614 31.74 36.666C32.226 36.771 32.834 36.868 33.396 36.868C33.959 36.868 34.571 37.078 34.901 37.676C35.183 38.188 35.113 38.742 35.014 39.108C34.9221 39.4316 34.7851 39.7406 34.607 40.026C34.911 39.906 35.234 39.776 35.573 39.638L35.635 39.612L35.6425 39.6089C37.019 39.0496 38.6677 38.3796 40.128 38.139C41.828 37.861 43.103 38.471 43.686 39.599C44.2 40.594 44.086 41.906 43.301 42.704C43.104 42.904 42.811 43.107 42.531 43.288C42.1744 43.5137 41.8116 43.7295 41.443 43.935C40.618 44.399 39.597 44.932 38.573 45.447C36.551 46.464 34.421 47.459 33.737 47.707C32.551 48.137 31.179 48 29.96 47.878L29.833 47.865C29.4641 47.8272 29.0947 47.7938 28.725 47.765C27.0665 47.6391 25.7952 47.2387 24.6341 46.873L24.631 46.872L24.606 46.864C23.356 46.47 22.23 46.119 20.718 46.058C20.386 46.045 19.492 46.069 18.63 46.101C18.42 46.1086 18.21 46.1166 18 46.125V48H12V35H18V36.6108Z" fill="url(#paint0_linear_284_1434)" fill-opacity="0.7"/>
<path d="M47.94 13.457L47.7829 14.4446L48.7694 14.6015L48.9274 13.6152L47.94 13.457ZM46.953 13.3L45.9871 13.559L46.1551 14.1857L46.7959 14.2876L46.953 13.3ZM47.942 13.456L48.9291 13.616L49.0896 12.6259L48.0991 12.4684L47.942 13.456ZM47.936 13.493L46.9489 13.333L46.9486 13.3346L47.936 13.493ZM47.919 13.599L48.906 13.7596L48.9064 13.7574L47.919 13.599ZM47.605 15.437L46.6206 15.2608L46.6203 15.2627L47.605 15.437ZM46.733 19.937L47.7113 20.1442L47.7115 20.1431L46.733 19.937ZM45.524 24.855L44.5655 24.5697L44.5633 24.5776L45.524 24.855ZM44.837 26.845L45.7608 27.228L45.7643 27.2194L44.837 26.845ZM44.011 28.305L44.7635 28.9636L44.7646 28.9624L44.011 28.305ZM41.261 29.422L41.1941 28.4242L41.1939 28.4243L41.261 29.422ZM38.168 29.192L37.9907 30.1762L37.9935 30.1767L38.168 29.192ZM35.54 28.582L35.8144 27.6204L35.8131 27.62L35.54 28.582ZM35.4308 28.551L35.7039 27.589L34.9776 27.3829L34.5804 28.0249L35.4308 28.551ZM32.93 33.368L33.8599 33.7359L33.86 33.7357L32.93 33.368ZM32.7184 33.6959L33.4366 34.3917L33.4367 34.3916L32.7184 33.6959ZM32.3974 33.9178L32.0001 33.0001L32.0001 33.0001L32.3974 33.9178ZM32.0159 34L32.0318 34.9999H32.0318L32.0159 34ZM31.0822 33.3974L31.9999 33.0001L31.9998 33.0001L31.0822 33.3974ZM31.07 32.632L31.9998 32.9999L32 32.9997L31.07 32.632ZM33.7068 27.5361L34.5578 28.0613L34.8676 27.5593L34.5781 27.0453L33.7068 27.5361ZM33.7 27.524L34.5713 27.0333L34.5679 27.0273L33.7 27.524ZM33.295 26.781L34.1827 26.3207L34.1815 26.3182L33.295 26.781ZM32.221 24.346L31.2795 24.6831L31.2815 24.6886L32.221 24.346ZM31.548 21.275L30.5489 21.3172L30.5489 21.318L31.548 21.275ZM32.474 18.215L31.7217 17.5562L31.7214 17.5566L32.474 18.215ZM35.866 16.052L36.2832 16.9608L36.2843 16.9603L35.866 16.052ZM40.576 14.214L40.2528 13.2677L40.2516 13.2681L40.576 14.214ZM46.56 12.37L46.8255 13.3341L46.8296 13.333L46.56 12.37ZM46.66 12.342L46.9296 13.305L46.9347 13.3035L46.66 12.342ZM46.695 12.332L47.6606 12.0719L47.3965 11.0915L46.4203 11.3705L46.695 12.332ZM46.694 12.334L46.4346 11.3682L45.4693 11.6275L45.7281 12.593L46.694 12.334ZM46.955 13.299L45.9893 13.5587L46.1576 14.1847L46.7979 14.2866L46.955 13.299ZM48.183 11.934L49.1705 12.0916L49.4136 10.568L47.9236 10.9682L48.183 11.934ZM36.5696 26.7919L35.7407 26.2325L34.9516 27.4016L36.316 27.7592L36.5696 26.7919ZM38.513 27.224L38.3328 28.2076L38.3393 28.2088L38.513 27.224ZM41.26 20.65L42.0193 21.3008L42.0199 21.3L41.26 20.65ZM41.15 19.24L41.7999 18.48L40.15 17.069V19.24H41.15ZM41.15 19.241L40.499 20.0001L42.15 21.416V19.241H41.15ZM39.74 19.349L38.981 18.6979L38.9807 18.6983L39.74 19.349ZM34.9462 25.6215L34.0527 26.0706L34.8188 27.5949L35.7745 26.1817L34.9462 25.6215ZM34.104 23.67L33.163 24.0084L33.1643 24.012L34.104 23.67ZM33.547 21.189L34.5461 21.1471L34.5461 21.146L33.547 21.189ZM33.979 19.533L34.7308 20.1924L34.7317 20.1914L33.979 19.533ZM36.701 17.869L37.1188 18.7775L37.1191 18.7774L36.701 17.869ZM41.225 16.106L41.5494 17.0519L41.5494 17.0519L41.225 16.106ZM45.395 14.782L45.1154 13.8219L45.1122 13.8228L45.395 14.782ZM45.704 14.692L46.6892 14.8632L46.9638 13.2835L45.4244 13.7319L45.704 14.692ZM44.776 19.524L45.7542 19.7316L45.7546 19.7299L44.776 19.524ZM43.606 24.286L42.6476 24.0005L42.645 24.0094L43.606 24.286ZM42.989 26.079L43.9127 26.4623L43.9167 26.4524L42.989 26.079ZM42.505 26.989L43.2571 27.6481L43.2607 27.6439L42.505 26.989ZM41.127 27.427L41.0604 26.4292L41.0593 26.4293L41.127 27.427ZM15.016 17.097L14.0284 17.254L14.0296 17.2614L15.016 17.097ZM14.774 15.575L15.0333 14.6092L13.5443 14.2095L13.7864 15.732L14.774 15.575ZM15.021 17.127L16.0083 16.9681L16.0074 16.9626L15.021 17.127ZM15.035 17.214L14.0477 17.3729L14.0484 17.3774L15.035 17.214ZM15.089 17.54L14.1024 17.7034L14.1026 17.7045L15.089 17.54ZM16 22.374L15.0214 22.5798L15.0217 22.5814L16 22.374ZM16.986 26.384L16.0274 26.6688L16.0279 26.6705L16.986 26.384ZM17.551 28.02L18.4744 27.6363L18.4741 27.6355L17.551 28.02ZM18.255 29.257L19.0082 28.5992L19.0064 28.5972L18.255 29.257ZM20.617 30.229L20.6842 29.2313L20.6828 29.2312L20.617 30.229ZM23.177 30.041L23.3498 31.026L23.3537 31.0253L23.177 30.041ZM25.1841 29.5838L26.045 29.075L25.6552 28.4156L24.9171 28.6201L25.1841 29.5838ZM27.067 33.359L26.1337 33.7181L26.1382 33.7298L26.143 33.7414L27.067 33.359ZM27.5965 33.8955L27.202 34.8144L27.202 34.8144L27.5965 33.8955ZM28.3501 33.9099L27.991 32.9766L27.991 32.9766L28.3501 33.9099ZM28.933 32.641L29.875 32.3054L29.8708 32.2936L29.8663 32.282L28.933 32.641ZM26.9285 28.6052L26.0608 28.1082L25.772 28.6123L26.067 29.1129L26.9285 28.6052ZM27.269 27.981L26.3817 27.5199L26.3814 27.5205L27.269 27.981ZM28.152 25.98L29.093 26.3185L29.0934 26.3173L28.152 25.98ZM28.709 23.429L27.7099 23.3855L27.7099 23.3868L28.709 23.429ZM27.911 20.812L27.158 21.47L27.1585 21.4706L27.911 20.812ZM25.092 19.006L25.5104 18.0978L25.5101 18.0976L25.092 19.006ZM21.247 17.506L21.5711 16.56L21.5702 16.5597L21.247 17.506ZM16.374 16.004L16.6396 15.0399L16.6331 15.0382L16.374 16.004ZM16.292 15.982L16.026 16.946L16.0329 16.9478L16.292 15.982ZM16.263 15.974L16.5289 15.01L12.8809 14.0036L15.5556 16.6808L16.263 15.974ZM16.264 15.975L16.0046 16.9408L19.6096 17.9089L16.9714 15.2682L16.264 15.975ZM16.2628 15.9747L16.5222 15.0089L16.5221 15.0089L16.2628 15.9747ZM25.7034 26.6458L24.8686 27.1963L25.8392 28.6682L26.6044 27.0797L25.7034 26.6458ZM22.785 22.615L21.9995 23.2338L21.9998 23.2342L22.785 22.615ZM26.269 25.305L27.2086 25.6474L27.2103 25.6426L26.269 25.305ZM26.711 23.343L25.7119 23.2996L25.7119 23.301L26.711 23.343ZM26.406 22.128L27.1596 21.4706L27.1571 21.4678L26.406 22.128ZM24.256 20.823L23.8378 21.7314L23.8381 21.7315L24.256 20.823ZM20.598 19.398L20.922 18.452L20.9211 18.4516L20.598 19.398ZM17.256 18.336L17.5385 17.3767L16.0182 16.929L16.2686 18.494L17.256 18.336ZM17.26 18.361L16.2726 18.519L16.2739 18.5272L16.2753 18.5354L17.26 18.361ZM17.957 21.96L18.9353 21.7529L18.9352 21.7524L17.957 21.96ZM18.903 25.814L17.9444 26.0988L17.9448 26.1001L18.903 25.814ZM19.398 27.253L18.4749 27.6376L18.4753 27.6384L19.398 27.253ZM19.76 27.941L19.0036 28.5952L19.0099 28.6024L19.76 27.941ZM20.751 28.234L20.6844 29.2318L20.6846 29.2318L20.751 28.234ZM22.83 28.071L23.0034 29.0559L23.0074 29.0551L22.83 28.071ZM24.0732 27.8068L24.3115 28.778L25.6867 28.4406L24.9088 27.2574L24.0732 27.8068ZM21.215 23.853L22.0004 23.234L21.9996 23.2329L21.215 23.853ZM21.0064 23.1163L20.0132 22.9997L20.0132 22.9997L21.0064 23.1163ZM21.1267 22.745L20.2538 22.257L20.2538 22.257L21.1267 22.745ZM21.38 22.448L20.7615 21.6622L20.7604 21.6631L21.38 22.448ZM23.082 37.007L23.0356 36.008L23.027 36.0085L23.082 37.007ZM22.672 37.071L22.2711 36.1548L22.2597 36.1599L22.672 37.071ZM23.852 37.021L23.7693 38.0176L23.7731 38.0179L23.852 37.021ZM24.751 37.131L24.9184 36.1451L24.9148 36.1445L24.751 37.131ZM24.804 37.14L25.0213 36.1639L24.9965 36.1584L24.9714 36.1541L24.804 37.14ZM30.401 38.386L30.6831 37.4266L30.651 37.4172L30.6183 37.4099L30.401 38.386ZM30.435 38.396L30.1529 39.3554L30.1542 39.3558L30.435 38.396ZM31.318 38.621L31.5335 37.6445L31.5307 37.6439L31.318 38.621ZM32.974 38.855L33.8608 39.3171L34.5708 37.9546L33.0375 37.857L32.974 38.855ZM32.838 39.081L33.6583 39.653L33.6616 39.6482L32.838 39.081ZM32.466 39.479L33.0432 40.2956L33.0472 40.2927L32.466 39.479ZM31.696 39.859L31.4506 38.8896L31.4412 38.892L31.4319 38.8945L31.696 39.859ZM31.538 39.889V40.889H31.592L31.6457 40.8832L31.538 39.889ZM31.528 39.889L31.516 40.889H31.528V39.889ZM26.958 39.834L26.97 38.8341L26.0502 38.823L25.9626 39.7387L26.958 39.834ZM26.768 41.818L25.7726 41.7227L25.6861 42.6253L26.576 42.7994L26.768 41.818ZM26.814 41.827L26.622 42.8084L26.6309 42.8101L26.6398 42.8117L26.814 41.827ZM26.944 41.85L27.1186 40.8653L27.1182 40.8653L26.944 41.85ZM28.962 42.192L29.122 41.2049L29.1216 41.2048L28.962 42.192ZM32.365 42.642L32.3034 43.6401L32.3058 43.6402L32.365 42.642ZM34.242 42.292L34.5578 43.2408L34.5587 43.2405L34.242 42.292ZM36.2985 41.5025L36.6748 42.429L36.675 42.4289L36.2985 41.5025ZM36.307 41.499L36.6835 42.4254L36.7006 42.4185L36.7173 42.4109L36.307 41.499ZM36.327 41.49L35.9502 40.5637L35.9333 40.5706L35.9167 40.5781L36.327 41.49ZM40.453 40.113L40.615 41.0998L40.6156 41.0997L40.453 40.113ZM41.533 40.178L41.1341 41.095L41.1486 41.1013L41.1633 41.1071L41.533 40.178ZM41.91 40.518L42.7974 40.0569L42.7962 40.0546L41.91 40.518ZM41.876 41.302L42.5268 42.0612L42.5579 42.0346L42.5866 42.0056L41.876 41.302ZM41.848 41.326L42.4839 42.0977L42.4914 42.0916L42.4988 42.0852L41.848 41.326ZM41.758 41.396L42.348 42.2034L42.3494 42.2024L41.758 41.396ZM41.45 41.606L41.9926 42.446L41.9941 42.445L41.45 41.606ZM40.463 42.192L39.9731 41.3202L39.9725 41.3206L40.463 42.192ZM37.676 43.66L38.1253 44.5534L38.1253 44.5534L37.676 43.66ZM33.056 45.827L33.3971 46.767L33.3976 46.7668L33.056 45.827ZM30.033 45.875L30.1329 44.88L30.0831 44.875H30.033V45.875ZM30.028 45.875L29.9292 46.8701L29.9785 46.875H30.028V45.875ZM29.9841 45.8706L29.8737 46.8646L29.8853 46.8658L29.9841 45.8706ZM29.9839 45.8706L30.0943 44.8767L30.0826 44.8755L29.9839 45.8706ZM28.876 45.77L28.8007 46.7672L28.8012 46.7672L28.876 45.77ZM25.209 44.957L24.8927 45.9057L24.9006 45.9083L24.9085 45.9108L25.209 44.957ZM25.182 44.948L25.4983 43.9993L25.4906 43.9968L25.4828 43.9943L25.182 44.948ZM20.798 44.06L20.7559 45.0591L20.7584 45.0592L20.798 44.06ZM18.558 44.102L18.5218 43.1027H18.5217L18.558 44.102ZM18 44.124H17V45.1705L18.0454 45.123L18 44.124ZM18 38.721L17.6636 37.7793L17 38.0163V38.721H18ZM18.028 38.711L17.7098 37.763L17.7007 37.766L17.6916 37.7693L18.028 38.711ZM18.1211 38.6798L17.8029 37.7317L17.8029 37.7317L18.1211 38.6798ZM19.655 38.161L19.3323 37.2145L19.3309 37.215L19.655 38.161ZM19.008 36.269L19.331 37.2154L19.3313 37.2153L19.008 36.269ZM18 36.6108H17V38.0031L18.3194 37.5585L18 36.6108ZM21.848 35.249L22.2586 36.1608L22.2601 36.1601L21.848 35.249ZM22.966 35.009L22.9097 34.0106L22.9062 34.0108L22.966 35.009ZM24.005 35.028L24.083 34.031L24.08 34.0308L24.005 35.028ZM25.151 35.171L25.3382 34.1887L25.3293 34.187L25.3203 34.1854L25.151 35.171ZM25.172 35.175L24.9848 36.1573L25.0776 36.175H25.172V35.175ZM25.178 35.175L25.6262 34.2811L25.4147 34.175H25.178V35.175ZM25.18 35.176L24.7318 36.0699L24.9433 36.176H25.18V35.176ZM25.182 35.176L26.1653 35.3581L26.3842 34.176H25.182V35.176ZM25.181 35.177L25.3477 34.191L24.376 34.0267L24.1975 34.9959L25.181 35.177ZM25 36.16L24.0165 35.9789L25.9833 36.3419L25 36.16ZM25.199 35.18L25.4161 34.2039L25.3898 34.198L25.3632 34.1936L25.199 35.18ZM30.917 36.452L31.2127 35.4967L31.1738 35.4847L31.1341 35.4759L30.917 36.452ZM30.959 36.465L31.3104 35.5288L31.2828 35.5184L31.2547 35.5097L30.959 36.465ZM30.967 36.468L30.6156 37.4042L30.6518 37.4178L30.689 37.4286L30.967 36.468ZM31.005 36.479L30.727 37.4396L30.7311 37.4408L31.005 36.479ZM31.163 36.524L30.8891 37.4858L30.8993 37.4886L31.163 36.524ZM31.74 36.666L31.5266 37.643L31.5288 37.6434L31.74 36.666ZM34.901 37.676L35.7769 37.1936L35.7765 37.1928L34.901 37.676ZM35.014 39.108L35.976 39.3812L35.9793 39.3691L35.014 39.108ZM34.607 40.026L33.7587 39.4966L32.1526 42.0699L34.9742 40.9562L34.607 40.026ZM35.573 39.638L35.9501 40.5642L35.9597 40.5602L35.573 39.638ZM35.635 39.612L35.259 38.6853L35.2483 38.6898L35.635 39.612ZM35.6425 39.6089L36.0185 40.5356L36.019 40.5354L35.6425 39.6089ZM40.128 38.139L39.9666 37.1521L39.9655 37.1523L40.128 38.139ZM43.686 39.599L44.5745 39.14L44.5744 39.1399L43.686 39.599ZM43.301 42.704L44.0134 43.4057L44.0139 43.4053L43.301 42.704ZM42.531 43.288L43.0659 44.133L43.0739 44.1278L42.531 43.288ZM41.443 43.935L40.956 43.0616L40.9528 43.0634L41.443 43.935ZM38.573 45.447L38.1237 44.5536L38.1237 44.5536L38.573 45.447ZM33.737 47.707L34.0779 48.6471L34.0779 48.6471L33.737 47.707ZM29.96 47.878L29.8582 48.8728L29.8604 48.873L29.96 47.878ZM29.833 47.865L29.731 48.8598L29.7312 48.8598L29.833 47.865ZM28.725 47.765L28.8028 46.768L28.8007 46.7679L28.725 47.765ZM24.6341 46.873L24.9345 45.9192L24.9337 45.9189L24.6341 46.873ZM24.631 46.872L24.3261 47.8244L24.3314 47.8261L24.631 46.872ZM24.606 46.864L24.9109 45.9116L24.9066 45.9103L24.606 46.864ZM20.718 46.058L20.7583 45.0588L20.7571 45.0588L20.718 46.058ZM18.63 46.101L18.6663 47.1003L18.6671 47.1003L18.63 46.101ZM18 46.125L17.9601 45.1258L17 45.1642V46.125H18ZM18 48V49H19V48H18ZM12 48H11V49H12V48ZM12 35V34H11V35H12ZM18 35H19V34H18V35ZM59 30C59 46.0163 46.0163 59 30 59V61C47.1208 61 61 47.1208 61 30H59ZM30 1C46.0163 1 59 13.9837 59 30H61C61 12.8792 47.1208 -1 30 -1V1ZM1 30C1 13.9837 13.9837 1 30 1V-1C12.8792 -1 -1 12.8792 -1 30H1ZM30 59C13.9837 59 1 46.0163 1 30H-1C-1 47.1208 12.8792 61 30 61V59ZM48.0971 12.4694L47.1101 12.3124L46.7959 14.2876L47.7829 14.4446L48.0971 12.4694ZM46.9528 13.2975L46.9526 13.2988L48.9274 13.6152L48.9276 13.6139L46.9528 13.2975ZM48.0991 12.4684L48.0973 12.4681L47.7831 14.4433L47.7849 14.4436L48.0991 12.4684ZM48.9231 13.653L48.9291 13.616L46.9549 13.296L46.9489 13.333L48.9231 13.653ZM48.9064 13.7574L48.9234 13.6514L46.9486 13.3346L46.9316 13.4406L48.9064 13.7574ZM48.5894 15.6132C48.6998 14.9962 48.8053 14.3783 48.906 13.7596L46.932 13.4384C46.833 14.0467 46.7292 14.6542 46.6206 15.2608L48.5894 15.6132ZM47.7115 20.1431C48.0287 18.6373 48.3214 17.1266 48.5897 15.6113L46.6203 15.2627C46.3558 16.7566 46.0671 18.2463 45.7545 19.7309L47.7115 20.1431ZM46.4824 25.1403C46.9326 23.6277 47.3531 21.8357 47.7113 20.1442L45.7547 19.7298C45.4009 21.4003 44.9934 23.1323 44.5655 24.5697L46.4824 25.1403ZM45.7643 27.2194C46.04 26.5365 46.2804 25.8399 46.4847 25.1324L44.5633 24.5776C44.3779 25.2194 44.1598 25.8512 43.9097 26.4706L45.7643 27.2194ZM44.7646 28.9624C45.203 28.4598 45.5228 27.8019 45.7608 27.2279L43.9132 26.4621C43.6952 26.9881 43.475 27.3982 43.2574 27.6476L44.7646 28.9624ZM41.3279 30.4198C42.3548 30.3509 43.7914 30.0742 44.7635 28.9636L43.2585 27.6464C42.8266 28.1398 42.0772 28.3651 41.1941 28.4242L41.3279 30.4198ZM37.9935 30.1767C39.0228 30.3591 40.2168 30.4945 41.3281 30.4197L41.1939 28.4243C40.3132 28.4835 39.2992 28.3769 38.3425 28.2073L37.9935 30.1767ZM35.2656 29.5436C36.1629 29.7996 37.0724 30.0107 37.9907 30.1762L38.3453 28.2078C37.4924 28.0542 36.6477 27.8581 35.8144 27.6204L35.2656 29.5436ZM35.1578 29.513L35.2669 29.544L35.8131 27.62L35.7039 27.589L35.1578 29.513ZM33.86 33.7357C34.4316 32.2898 35.2794 30.6967 36.2813 29.0771L34.5804 28.0249C33.5417 29.704 32.63 31.4069 32 33.0003L33.86 33.7357ZM33.4367 34.3916C33.6194 34.203 33.7632 33.9802 33.8599 33.7359L32.0001 33.0001L32.0001 33.0001L33.4367 34.3916ZM32.7947 34.8355C33.0358 34.7311 33.2539 34.5803 33.4366 34.3917L32.0001 33.0001L32.0001 33.0001L32.7947 34.8355ZM32.0318 34.9999C32.2945 34.9957 32.5537 34.9399 32.7947 34.8355L32.0001 33.0001L32 33.0002L32.0318 34.9999ZM31.2641 34.8599C31.5083 34.9565 31.7692 35.0041 32.0318 34.9999L32 33.0002L31.9999 33.0001L31.2641 34.8599ZM30.6083 34.4366C30.797 34.6194 31.0198 34.7632 31.2641 34.8599L31.9999 33.0001L31.9999 33.0001L30.6083 34.4366ZM30.1645 33.7947C30.2689 34.0358 30.4197 34.2539 30.6083 34.4366L31.9999 33.0001L31.9999 33.0001L30.1645 33.7947ZM30.0001 33.0318C30.0043 33.2944 30.0601 33.5537 30.1645 33.7947L31.9998 33.0001L31.9998 33L30.0001 33.0318ZM30.1402 32.2641C30.0435 32.5083 29.9959 32.7692 30.0001 33.0318L31.9998 33L31.9998 32.9999L30.1402 32.2641ZM32.8558 27.0109C31.7718 28.7672 30.8128 30.5628 30.14 32.2643L32 32.9997C32.6152 31.4435 33.5114 29.7567 34.5578 28.0613L32.8558 27.0109ZM32.8287 28.0147L32.8355 28.0268L34.5781 27.0453L34.5713 27.0333L32.8287 28.0147ZM32.4073 27.2413C32.5435 27.504 32.6851 27.7638 32.8321 28.0207L34.5679 27.0273C34.4347 26.7945 34.3063 26.5588 34.1827 26.3207L32.4073 27.2413ZM31.2815 24.6886C31.6007 25.5641 31.9772 26.4177 32.4085 27.2438L34.1815 26.3182C33.7908 25.5698 33.4497 24.7966 33.1605 24.0034L31.2815 24.6886ZM30.5489 21.318C30.6 22.5055 30.9251 23.6933 31.2795 24.6831L33.1625 24.0089C32.8409 23.1107 32.586 22.1365 32.5471 21.232L30.5489 21.318ZM31.7214 17.5566C30.7105 18.712 30.4992 20.1399 30.5489 21.3172L32.5471 21.2328C32.5088 20.3261 32.6855 19.492 33.2266 18.8734L31.7214 17.5566ZM35.4488 15.1432C34.0734 15.7746 32.5749 16.5818 31.7217 17.5562L33.2263 18.8738C33.7671 18.2562 34.8966 17.5974 36.2832 16.9608L35.4488 15.1432ZM40.2516 13.2681C38.6422 13.82 36.9225 14.4645 35.4477 15.1437L36.2843 16.9603C37.6715 16.3215 39.3198 15.702 40.9004 15.1599L40.2516 13.2681ZM46.2945 11.4059C44.2623 11.9656 42.2475 12.5864 40.2528 13.2677L40.8992 15.1603C42.8558 14.4921 44.8322 13.8831 46.8255 13.3341L46.2945 11.4059ZM46.3904 11.379L46.2904 11.407L46.8296 13.333L46.9296 13.305L46.3904 11.379ZM46.4203 11.3705L46.3853 11.3805L46.9347 13.3035L46.9697 13.2935L46.4203 11.3705ZM47.661 12.0735L47.6606 12.0719L45.7294 12.5921L45.7298 12.5937L47.661 12.0735ZM46.9534 13.2998L46.9549 13.2994L46.436 11.3679L46.4346 11.3682L46.9534 13.2998ZM47.9189 13.041L47.6599 12.075L45.7281 12.593L45.9871 13.559L47.9189 13.041ZM45.7297 12.5933L45.9893 13.5587L47.9207 13.0393L47.6611 12.074L45.7297 12.5933ZM47.9236 10.9682L46.436 11.3679L46.9549 13.2994L48.4424 12.8998L47.9236 10.9682ZM48.9277 13.6133L49.1705 12.0916L47.1955 11.7764L46.9527 13.2982L48.9277 13.6133ZM46.7979 14.2866L47.7831 14.4433L48.0973 12.4681L47.1121 12.3114L46.7979 14.2866ZM36.316 27.7592C36.9823 27.9339 37.655 28.0834 38.3328 28.2076L38.6932 26.2404C38.0647 26.1252 37.4409 25.9865 36.8231 25.8246L36.316 27.7592ZM40.5007 19.9992C38.9814 21.7718 37.2756 23.9583 35.7407 26.2325L37.3985 27.3513C38.8851 25.1487 40.5431 23.023 42.0193 21.3008L40.5007 19.9992ZM40.5001 20L40.5001 20L42.0199 21.3C42.1907 21.1004 42.3204 20.8691 42.4017 20.6194L40.5001 20ZM40.5001 20L40.5001 20L42.4017 20.6194C42.4831 20.3696 42.5144 20.1063 42.494 19.8444L40.5001 20ZM40.5001 20H40.5001L42.494 19.8444C42.4736 19.5826 42.4018 19.3273 42.2827 19.0932L40.5001 20ZM40.5001 20V20L42.2827 19.0932C42.1636 18.8591 41.9996 18.6507 41.7999 18.48L40.5001 20ZM42.15 19.241V19.24H40.15V19.241H42.15ZM40.499 20.0001L41.801 18.4819C41.3984 18.1366 40.8751 17.9654 40.3463 18.0059L40.499 20.0001ZM40.499 20.0001L40.3463 18.0059C39.8174 18.0464 39.3263 18.2953 38.981 18.6979L40.499 20.0001ZM35.7745 26.1817C37.3168 23.9011 39.0148 21.7321 40.4993 19.9997L38.9807 18.6983C37.454 20.4798 35.7085 22.7091 34.1178 25.0613L35.7745 26.1817ZM33.1643 24.012C33.4202 24.7152 33.7169 25.4025 34.0527 26.0706L35.8396 25.1724C35.5388 24.5738 35.273 23.958 35.0437 23.328L33.1643 24.012ZM32.5479 21.2309C32.5858 22.136 32.8401 23.1103 33.163 24.0084L35.045 23.3316C34.7559 22.5277 34.5722 21.768 34.5461 21.1471L32.5479 21.2309ZM33.2272 18.8736C32.6854 19.4913 32.509 20.3269 32.5479 21.232L34.5461 21.146C34.519 20.5171 34.6586 20.2747 34.7308 20.1924L33.2272 18.8736ZM36.2832 16.9605C35.5612 17.2925 34.9393 17.6171 34.4377 17.9247C33.9528 18.2221 33.5186 18.5405 33.2263 18.8746L34.7317 20.1914C34.8234 20.0865 35.0522 19.8939 35.4833 19.6296C35.8977 19.3754 36.4448 19.0875 37.1188 18.7775L36.2832 16.9605ZM40.9006 15.1601C39.3202 15.702 37.6716 16.3215 36.2829 16.9606L37.1191 18.7774C38.4204 18.1785 39.9978 17.584 41.5494 17.0519L40.9006 15.1601ZM45.1122 13.8228C43.994 14.1525 42.4814 14.618 40.9006 15.1601L41.5494 17.0519C43.0946 16.522 44.578 16.0655 45.6778 15.7412L45.1122 13.8228ZM45.4244 13.7319L45.1154 13.8219L45.6746 15.7421L45.9836 15.6521L45.4244 13.7319ZM45.7546 19.7299C46.0948 18.1133 46.4064 16.4908 46.6892 14.8632L44.7188 14.5208C44.4399 16.1252 44.1328 17.7245 43.7974 19.3181L45.7546 19.7299ZM44.5644 24.5715C44.9926 23.1337 45.4001 21.4006 45.7542 19.7316L43.7978 19.3164C43.4479 20.9654 43.0534 22.6383 42.6476 24.0005L44.5644 24.5715ZM43.9167 26.4524C44.1656 25.834 44.3826 25.2032 44.567 24.5626L42.645 24.0094C42.4795 24.5844 42.2847 25.1506 42.0613 25.7056L43.9167 26.4524ZM43.2607 27.6439C43.4738 27.398 43.6932 26.991 43.9126 26.4623L42.0654 25.6957C41.971 25.923 41.8912 26.087 41.8302 26.1984C41.7643 26.3187 41.7351 26.3504 41.7493 26.3341L43.2607 27.6439ZM41.1936 28.4248C42.076 28.3659 42.8245 28.1417 43.2571 27.6481L41.7529 26.3299C41.8194 26.2541 41.8447 26.272 41.7225 26.3156C41.608 26.3564 41.3995 26.4066 41.0604 26.4292L41.1936 28.4248ZM38.3393 28.2088C39.2988 28.3781 40.313 28.4846 41.1947 28.4247L41.0593 26.4293C40.409 26.4734 39.5752 26.3959 38.6867 26.2392L38.3393 28.2088ZM16.0036 16.94L15.7616 15.418L13.7864 15.732L14.0284 17.254L16.0036 16.94ZM16.0074 16.9626L16.0024 16.9326L14.0296 17.2614L14.0346 17.2914L16.0074 16.9626ZM16.0223 17.0551L16.0083 16.9681L14.0337 17.2859L14.0477 17.3729L16.0223 17.0551ZM16.0756 17.3766L16.0216 17.0506L14.0484 17.3774L14.1024 17.7034L16.0756 17.3766ZM16.9786 22.1682C16.644 20.5771 16.3429 18.9792 16.0754 17.3755L14.1026 17.7045C14.3748 19.3359 14.6811 20.9613 15.0214 22.5798L16.9786 22.1682ZM17.9446 26.0992C17.5976 24.9313 17.266 23.5239 16.9783 22.1666L15.0217 22.5814C15.314 23.9601 15.6584 25.4267 16.0274 26.6688L17.9446 26.0992ZM18.4741 27.6355C18.2961 27.208 18.1195 26.684 17.9441 26.0975L16.0279 26.6705C16.2125 27.288 16.4119 27.886 16.6279 28.4045L18.4741 27.6355ZM19.0064 28.5972C18.8309 28.3972 18.6523 28.0643 18.4744 27.6363L16.6276 28.4037C16.8237 28.8757 17.1032 29.4608 17.5036 29.9168L19.0064 28.5972ZM20.6828 29.2312C19.9674 29.184 19.3583 29.0001 19.0082 28.5992L17.5018 29.9148C18.3917 30.9339 19.6886 31.17 20.5512 31.2268L20.6828 29.2312ZM23.0042 29.056C22.2241 29.1929 21.4009 29.2795 20.6842 29.2313L20.5498 31.2267C21.497 31.2905 22.4999 31.1751 23.3498 31.026L23.0042 29.056ZM24.9171 28.6201C24.2854 28.7951 23.6458 28.9408 23.0003 29.0567L23.3537 31.0253C24.06 30.8984 24.7599 30.739 25.4511 30.5475L24.9171 28.6201ZM28.0003 32.9999C27.5158 31.7406 26.829 30.4015 26.045 29.075L24.3232 30.0926C25.0724 31.3602 25.7019 32.5958 26.1337 33.7181L28.0003 32.9999ZM27.991 32.9766L27.991 32.9766L26.143 33.7414C26.3425 34.2235 26.7226 34.6085 27.202 34.8144L27.991 32.9766ZM27.991 32.9766L27.991 32.9766L27.202 34.8144C27.6814 35.0202 28.2223 35.0305 28.7092 34.8432L27.991 32.9766ZM27.991 32.9766L27.991 32.9766L28.7092 34.8432C29.1961 34.6558 29.5906 34.2856 29.8084 33.8115L27.991 32.9766ZM27.991 32.9766V32.9766L29.8084 33.8115C30.0262 33.3374 30.0501 32.7969 29.875 32.3054L27.991 32.9766ZM26.067 29.1129C26.8549 30.45 27.5278 31.7735 27.9997 33L29.8663 32.282C29.3427 30.9209 28.6136 29.4951 27.7901 28.0975L26.067 29.1129ZM26.3814 27.5205C26.2786 27.7186 26.1717 27.9145 26.0608 28.1082L27.7962 29.1022C27.9209 28.8845 28.0411 28.6642 28.1566 28.4415L26.3814 27.5205ZM27.211 25.6415C26.9486 26.3711 26.6322 27.0378 26.3817 27.5199L28.1563 28.4421C28.4338 27.9082 28.7914 27.1569 29.093 26.3185L27.211 25.6415ZM27.7099 23.3868C27.6789 24.1209 27.4721 24.9129 27.2106 25.6427L29.0934 26.3173C29.3879 25.4951 29.6651 24.4891 29.7081 23.4712L27.7099 23.3868ZM27.1585 21.4706C27.5976 21.9723 27.742 22.6494 27.7099 23.3855L29.7081 23.4725C29.752 22.4626 29.5723 21.1917 28.6635 20.1534L27.1585 21.4706ZM24.6736 19.9142C25.8012 20.4337 26.7185 20.9671 27.158 21.47L28.664 20.154C27.9115 19.2929 26.6228 18.6103 25.5104 18.0978L24.6736 19.9142ZM20.9229 18.452C22.2071 18.892 23.5465 19.3955 24.6739 19.9144L25.5101 18.0976C24.2955 17.5385 22.8849 17.01 21.5711 16.56L20.9229 18.452ZM16.1084 16.9681C17.7281 17.4144 19.3339 17.9093 20.9238 18.4523L21.5702 16.5597C19.9423 16.0037 18.298 15.4969 16.6396 15.0399L16.1084 16.9681ZM16.0329 16.9478L16.1149 16.9698L16.6331 15.0382L16.5511 15.0162L16.0329 16.9478ZM15.9971 16.938L16.0261 16.946L16.5579 15.018L16.5289 15.01L15.9971 16.938ZM16.9714 15.2682L16.9704 15.2672L15.5556 16.6808L15.5566 16.6818L16.9714 15.2682ZM16.0035 16.9405L16.0046 16.9408L16.5234 15.0092L16.5222 15.0089L16.0035 16.9405ZM14.5147 16.5408L16.0035 16.9405L16.5221 15.0089L15.0333 14.6092L14.5147 16.5408ZM26.5382 26.0953C25.5729 24.6315 24.5426 23.2287 23.5702 21.9958L21.9998 23.2342C22.9423 24.4294 23.9387 25.7862 24.8686 27.1963L26.5382 26.0953ZM25.3295 24.9626C25.1745 25.3876 24.9986 25.8046 24.8025 26.2118L26.6044 27.0797C26.8293 26.6128 27.0309 26.1348 27.2085 25.6474L25.3295 24.9626ZM25.7119 23.301C25.6929 23.7526 25.5562 24.3304 25.3277 24.9674L27.2103 25.6426C27.4718 24.9136 27.6791 24.1214 27.7101 23.385L25.7119 23.301ZM25.6524 22.7854C25.6259 22.7549 25.7318 22.8433 25.7119 23.2996L27.7101 23.3864C27.7422 22.6467 27.5961 21.9711 27.1596 21.4706L25.6524 22.7854ZM23.8381 21.7315C24.382 21.9817 24.8116 22.2092 25.1287 22.4035C25.464 22.6089 25.6141 22.7418 25.6549 22.7882L27.1571 21.4678C26.9149 21.1922 26.5585 20.9341 26.1738 20.6983C25.7709 20.4513 25.267 20.1873 24.6739 19.9145L23.8381 21.7315ZM20.274 20.344C21.5292 20.774 22.7976 21.2525 23.8378 21.7314L24.6742 19.9146C23.5464 19.3955 22.2068 18.892 20.922 18.452L20.274 20.344ZM16.9735 19.2953C18.0813 19.6215 19.182 19.9713 20.2749 20.3444L20.9211 18.4516C19.8013 18.0694 18.6735 17.711 17.5385 17.3767L16.9735 19.2953ZM18.2474 18.203L18.2434 18.178L16.2686 18.494L16.2726 18.519L18.2474 18.203ZM18.9352 21.7524C18.6532 20.4236 18.4134 19.1393 18.2447 18.1866L16.2753 18.5354C16.4466 19.5027 16.6908 20.8104 16.9788 22.1676L18.9352 21.7524ZM19.8616 25.5292C19.5366 24.4354 19.218 23.088 18.9353 21.7529L16.9787 22.1671C17.266 23.524 17.5974 24.9306 17.9444 26.0988L19.8616 25.5292ZM20.3211 26.8684C20.18 26.5299 20.0254 26.0779 19.8612 25.5279L17.9448 26.1001C18.1186 26.6821 18.296 27.2081 18.4749 27.6376L20.3211 26.8684ZM20.5164 27.2868C20.5391 27.3131 20.546 27.3255 20.5373 27.3122C20.5304 27.3017 20.5164 27.2792 20.4959 27.2416C20.4547 27.1665 20.3951 27.0456 20.3207 26.8676L18.4753 27.6384C18.6537 28.0656 18.831 28.3955 19.0036 28.5951L20.5164 27.2868ZM20.8176 27.2362C20.5635 27.2193 20.4314 27.1825 20.382 27.1648C20.3581 27.1563 20.3609 27.1548 20.3815 27.1674C20.3993 27.1783 20.4504 27.2119 20.5101 27.2796L19.0099 28.6024C19.3595 28.9988 19.9623 29.1836 20.6844 29.2318L20.8176 27.2362ZM22.6566 27.0861C21.9481 27.2109 21.3036 27.2686 20.8174 27.2362L20.6846 29.2318C21.4004 29.2794 22.2239 29.1931 23.0034 29.0558L22.6566 27.0861ZM23.8349 26.8356C23.4438 26.9316 23.0495 27.0153 22.6526 27.0869L23.0074 29.0551C23.4448 28.9763 23.8797 28.884 24.3115 28.778L23.8349 26.8356ZM20.4296 24.472C21.3681 25.6629 22.342 26.994 23.2376 28.3562L24.9088 27.2574C23.9776 25.8412 22.9694 24.4636 22.0004 23.234L20.4296 24.472ZM20.0752 23.7779C20.1468 24.0307 20.2675 24.2669 20.4304 24.4731L21.9996 23.2329V23.2329L20.0752 23.7779ZM20.0132 22.9997C19.9826 23.2606 20.0036 23.5251 20.0752 23.7779L21.9996 23.2329V23.2329L20.0132 22.9997ZM20.2538 22.257C20.1256 22.4864 20.0439 22.7387 20.0132 22.9997L21.9996 23.233L21.9996 23.2329L20.2538 22.257ZM20.7604 21.6631C20.5542 21.8258 20.382 22.0277 20.2538 22.257L21.9996 23.233L21.9996 23.2329L20.7604 21.6631ZM22.2357 21.2478C21.7099 21.1853 21.1788 21.3338 20.7615 21.6622L21.9985 23.2338C21.9979 23.2342 21.9978 23.2341 21.9985 23.234C21.9987 23.2339 21.999 23.2338 21.9992 23.2338C21.9993 23.2338 21.9994 23.2338 21.9994 23.2338C21.9994 23.2338 21.9995 23.2338 21.9995 23.2338L22.2357 21.2478ZM23.5705 21.9962C23.2424 21.5796 22.7623 21.3104 22.2357 21.2478L21.9995 23.2338L23.5705 21.9962ZM23.027 36.0085C22.7283 36.025 22.4648 36.0701 22.2712 36.1548L23.0728 37.9872C23.0571 37.994 23.0439 37.9993 23.0342 38.003C23.0241 38.0068 23.0156 38.0098 23.0089 38.012C22.9957 38.0165 22.986 38.0193 22.9806 38.0208C22.9699 38.0238 22.9684 38.0237 22.9778 38.0219C22.9964 38.0184 23.0473 38.0104 23.137 38.0055L23.027 36.0085ZM23.9347 36.0244C23.6357 35.9996 23.3353 35.9942 23.0356 36.0081L23.1284 38.0059C23.3421 37.996 23.5562 37.9999 23.7693 38.0176L23.9347 36.0244ZM24.9148 36.1445C24.5887 36.0904 24.2604 36.0502 23.9309 36.0241L23.7731 38.0179C24.0458 38.0395 24.3174 38.0727 24.5872 38.1175L24.9148 36.1445ZM24.9714 36.1541L24.9184 36.1451L24.5836 38.1169L24.6366 38.1259L24.9714 36.1541ZM30.6183 37.4099L25.0213 36.1639L24.5867 38.1161L30.1837 39.3621L30.6183 37.4099ZM30.7171 37.4366L30.6831 37.4266L30.1189 39.3454L30.1529 39.3554L30.7171 37.4366ZM31.5307 37.6439C31.2567 37.5842 30.9849 37.515 30.7158 37.4362L30.1542 39.3558C30.4683 39.4477 30.7855 39.5285 31.1053 39.5981L31.5307 37.6439ZM33.0375 37.857C32.5315 37.8248 32.0286 37.7538 31.5335 37.6445L31.1025 39.5975C31.6977 39.7289 32.3022 39.8143 32.9105 39.853L33.0375 37.857ZM33.6616 39.6482C33.7347 39.542 33.8013 39.4314 33.8608 39.3171L32.0872 38.3929C32.0654 38.4347 32.0411 38.475 32.0144 38.5138L33.6616 39.6482ZM33.0472 40.2927C33.2651 40.1371 33.4796 39.9092 33.6583 39.653L32.0177 38.509C31.9816 38.5608 31.9468 38.6022 31.9185 38.6319C31.8881 38.6639 31.8748 38.6724 31.8848 38.6653L33.0472 40.2927ZM31.9414 40.8284C32.218 40.7584 32.6015 40.6078 33.0432 40.2956L31.8888 38.6624C31.6485 38.8322 31.49 38.8796 31.4506 38.8896L31.9414 40.8284ZM31.6457 40.8832C31.752 40.8717 31.8571 40.8517 31.9601 40.8235L31.4319 38.8945C31.4313 38.8947 31.4308 38.8948 31.4303 38.8948L31.6457 40.8832ZM31.528 40.889H31.538V38.889H31.528V40.889ZM26.946 40.8339L31.516 40.8889L31.54 38.8891L26.97 38.8341L26.946 40.8339ZM27.7634 41.9133L27.9534 39.9293L25.9626 39.7387L25.7726 41.7227L27.7634 41.9133ZM27.006 40.8456L26.96 40.8366L26.576 42.7994L26.622 42.8084L27.006 40.8456ZM27.1182 40.8653L26.9882 40.8423L26.6398 42.8117L26.7698 42.8347L27.1182 40.8653ZM29.1216 41.2048C28.4531 41.0967 27.7854 40.9836 27.1186 40.8653L26.7694 42.8346C27.4462 42.9546 28.1239 43.0695 28.8024 43.1792L29.1216 41.2048ZM32.4266 41.6439C31.6743 41.5975 30.3022 41.3962 29.122 41.2049L28.802 43.1791C29.9658 43.3678 31.4357 43.5865 32.3034 43.6401L32.4266 41.6439ZM33.9262 41.3432C33.3228 41.544 32.806 41.6664 32.4242 41.6438L32.3058 43.6402C33.104 43.6876 33.9412 43.446 34.5578 43.2408L33.9262 41.3432ZM35.9222 40.576C35.203 40.8681 34.5216 41.1444 33.9253 41.3435L34.5587 43.2405C35.2273 43.0173 35.9716 42.7146 36.6748 42.429L35.9222 40.576ZM35.9305 40.5726L35.922 40.5761L36.675 42.4289L36.6835 42.4254L35.9305 40.5726ZM35.9167 40.5781L35.8967 40.5871L36.7173 42.4109L36.7373 42.4019L35.9167 40.5781ZM40.291 39.1262C38.939 39.3482 37.3708 39.9859 35.9502 40.5637L36.7038 42.4163C38.1892 41.8121 39.531 41.2778 40.615 41.0998L40.291 39.1262ZM41.9319 39.261C41.5181 39.081 40.9759 39.0133 40.2904 39.1263L40.6156 41.0997C41.0101 41.0347 41.1479 41.101 41.1341 41.095L41.9319 39.261ZM42.7962 40.0546C42.6043 39.6878 42.2873 39.4019 41.9027 39.2489L41.1633 41.1071C41.1033 41.0833 41.0538 41.0386 41.0238 40.9814L42.7962 40.0546ZM42.5866 42.0056C42.8506 41.739 42.9552 41.3806 42.9875 41.1186C43.0256 40.8092 42.9909 40.4294 42.7973 40.0569L41.0227 40.9791C41.0011 40.9376 40.9994 40.8993 41.0025 40.8739C41.0041 40.8613 41.0082 40.8391 41.0214 40.8065C41.0282 40.7898 41.0399 40.7644 41.059 40.733C41.0767 40.7039 41.1102 40.6542 41.1654 40.5984L42.5866 42.0056ZM42.4988 42.0852L42.5268 42.0612L41.2252 40.5428L41.1972 40.5668L42.4988 42.0852ZM42.3494 42.2024C42.3953 42.1687 42.4401 42.1338 42.4839 42.0977L41.2121 40.5543C41.1972 40.5665 41.182 40.5783 41.1666 40.5896L42.3494 42.2024ZM41.9941 42.445C42.1329 42.355 42.251 42.2743 42.348 42.2034L41.168 40.5886C41.109 40.6317 41.0231 40.691 40.9059 40.767L41.9941 42.445ZM40.9529 43.0638C41.3561 42.8372 41.711 42.6279 41.9926 42.446L40.9074 40.766C40.675 40.9161 40.3599 41.1028 39.9731 41.3202L40.9529 43.0638ZM38.1253 44.5534C39.1419 44.042 40.1474 43.5172 40.9535 43.0634L39.9725 41.3206C39.2047 41.7528 38.2301 42.262 37.2267 42.7666L38.1253 44.5534ZM33.3976 46.7668C34.0154 46.5423 36.0932 45.5754 38.1253 44.5534L37.2267 42.7666C35.1748 43.7986 33.2026 44.7097 32.7144 44.8871L33.3976 46.7668ZM29.9331 46.87C30.6239 46.9394 31.2478 46.9972 31.795 47.0002C32.3464 47.0033 32.8857 46.9526 33.3971 46.767L32.7149 44.887C32.5153 44.9594 32.2401 45.0027 31.8062 45.0003C31.3682 44.9978 30.8361 44.9506 30.1329 44.88L29.9331 46.87ZM30.028 46.875H30.033V44.875H30.028V46.875ZM29.8853 46.8658L29.9292 46.8701L30.1268 44.8799L30.0829 44.8755L29.8853 46.8658ZM29.8735 46.8645L29.8737 46.8645L30.0945 44.8768L30.0943 44.8767L29.8735 46.8645ZM28.8012 46.7672C29.1712 46.795 29.5333 46.8308 29.8852 46.8657L30.0826 44.8755C29.7339 44.8409 29.3485 44.8026 28.9508 44.7728L28.8012 46.7672ZM24.9085 45.9108C26.0764 46.2787 27.2568 46.6506 28.8007 46.7672L28.9513 44.7728C27.6612 44.6754 26.6776 44.3713 25.5095 44.0032L24.9085 45.9108ZM24.8657 45.8967L24.8927 45.9057L25.5253 44.0083L25.4983 43.9993L24.8657 45.8967ZM20.7584 45.0592C22.405 45.1245 23.6393 45.51 24.8812 45.9017L25.4828 43.9943C24.2327 43.6 22.775 43.1375 20.8376 43.0608L20.7584 45.0592ZM18.5942 45.1013C19.4407 45.0707 20.3778 45.0432 20.7559 45.0591L20.8401 43.0609C20.3642 43.0408 19.3313 43.0733 18.5218 43.1027L18.5942 45.1013ZM18.0454 45.123C18.2162 45.1152 18.401 45.1084 18.5943 45.1013L18.5217 43.1027C18.329 43.1096 18.1358 43.1168 17.9546 43.125L18.0454 45.123ZM17 38.721V44.124H19V38.721H17ZM17.6916 37.7693L17.6636 37.7793L18.3364 39.6627L18.3644 39.6527L17.6916 37.7693ZM17.8029 37.7317L17.7098 37.763L18.3462 39.659L18.4393 39.6278L17.8029 37.7317ZM19.3309 37.215C18.767 37.4082 18.2242 37.5903 17.8029 37.7317L18.4392 39.6278C18.8601 39.4866 19.4085 39.3025 19.9791 39.107L19.3309 37.215ZM22.2597 36.1599C21.8626 36.3397 20.547 36.8004 19.3323 37.2145L19.9777 39.1075C21.139 38.7116 22.5754 38.2123 23.0843 37.9821L22.2597 36.1599ZM18.685 35.3226C18.3505 35.4368 18.0157 35.5503 17.6806 35.6632L18.3194 37.5585C18.6568 37.4448 18.994 37.3304 19.331 37.2154L18.685 35.3226ZM21.4374 34.3372C21.1501 34.4665 19.9562 34.8883 18.6847 35.3227L19.3313 37.2153C20.5478 36.7997 21.8619 36.3395 22.2586 36.1608L21.4374 34.3372ZM22.9062 34.0108C22.5325 34.0332 21.9701 34.0962 21.4359 34.3379L22.2601 36.1601C22.4599 36.0698 22.7315 36.0248 23.0258 36.0072L22.9062 34.0108ZM24.08 34.0308C23.7393 34.0052 23.326 33.9871 22.9097 34.0106L23.0222 36.0074C23.316 35.9909 23.6327 36.0028 23.93 36.0252L24.08 34.0308ZM25.3203 34.1854C24.9105 34.115 24.4976 34.0635 24.083 34.031L23.927 36.025C24.2804 36.0526 24.6323 36.0965 24.9817 36.1566L25.3203 34.1854ZM25.3592 34.1927L25.3382 34.1887L24.9638 36.1533L24.9848 36.1573L25.3592 34.1927ZM25.178 34.175H25.172V36.175H25.178V34.175ZM25.6282 34.2821L25.6262 34.2811L24.7298 36.0689L24.7318 36.0699L25.6282 34.2821ZM25.182 34.176H25.18V36.176H25.182V34.176ZM26.1651 35.3592L26.1653 35.3581L24.1987 34.9939L24.1985 34.995L26.1651 35.3592ZM25.0143 36.163L25.0151 36.1631L25.3485 34.1911L25.3477 34.191L25.0143 36.163ZM25.9835 36.3411L26.1645 35.3581L24.1975 34.9959L24.0165 35.9789L25.9835 36.3411ZM24.1985 34.9953L24.0167 35.9781L25.9833 36.3419L26.1651 35.359L24.1985 34.9953ZM25.3632 34.1936L25.346 34.1907L25.0176 36.1636L25.0348 36.1664L25.3632 34.1936ZM31.1341 35.4759L25.4161 34.2039L24.9819 36.1561L30.6999 37.4281L31.1341 35.4759ZM31.2547 35.5097L31.2127 35.4967L30.6213 37.4073L30.6633 37.4203L31.2547 35.5097ZM31.3184 35.5318L31.3104 35.5288L30.6076 37.4012L30.6156 37.4042L31.3184 35.5318ZM31.283 35.5184L31.245 35.5074L30.689 37.4286L30.727 37.4396L31.283 35.5184ZM31.4369 35.5623L31.2789 35.5173L30.7311 37.4408L30.8891 37.4858L31.4369 35.5623ZM31.9534 35.689C31.7368 35.6417 31.5542 35.5942 31.4267 35.5594L30.8993 37.4886C31.0498 37.5298 31.2672 37.5863 31.5266 37.643L31.9534 35.689ZM33.396 35.868C32.9345 35.868 32.4042 35.7864 31.9512 35.6886L31.5288 37.6434C32.0477 37.7556 32.7335 37.868 33.396 37.868V35.868ZM35.7765 37.1928C35.2116 36.1691 34.1822 35.868 33.396 35.868V37.868C33.5591 37.868 33.6989 37.8992 33.8025 37.949C33.8961 37.994 33.9692 38.0572 34.0255 38.1592L35.7765 37.1928ZM35.9793 39.3691C36.1048 38.9053 36.2435 38.0407 35.7769 37.1936L34.0251 38.1584C34.1225 38.3353 34.1212 38.5787 34.0487 38.8469L35.9793 39.3691ZM35.4553 40.5554C35.6832 40.1904 35.8584 39.7951 35.976 39.3812L34.052 38.8348C33.9858 39.0681 33.887 39.2909 33.7587 39.4966L35.4553 40.5554ZM35.196 38.7118C34.8591 38.8489 34.5396 38.9775 34.2398 39.0958L34.9742 40.9562C35.2824 40.8345 35.6089 40.7031 35.95 40.5642L35.196 38.7118ZM35.2483 38.6898L35.1863 38.7158L35.9597 40.5602L36.0217 40.5342L35.2483 38.6898ZM35.2665 38.6823L35.259 38.6854L36.011 40.5386L36.0185 40.5356L35.2665 38.6823ZM39.9655 37.1523C38.3731 37.4146 36.6149 38.1344 35.266 38.6825L36.019 40.5354C37.4231 39.9647 38.9622 39.3445 40.2905 39.1257L39.9655 37.1523ZM44.5744 39.1399C43.7483 37.5415 41.9903 36.8212 39.9666 37.1521L40.2894 39.1259C41.6657 38.9008 42.4577 39.4005 42.7976 40.0581L44.5744 39.1399ZM44.0139 43.4053C45.1444 42.2561 45.2576 40.4625 44.5745 39.14L42.7975 40.058C43.1424 40.7255 43.0276 41.5559 42.5881 42.0027L44.0139 43.4053ZM43.0739 44.1278C43.3525 43.9477 43.7308 43.6926 44.0134 43.4057L42.5886 42.0023C42.4772 42.1154 42.2695 42.2663 41.9881 42.4482L43.0739 44.1278ZM41.93 44.8084C42.3148 44.5938 42.6936 44.3686 43.0659 44.1329L41.9961 42.4431C41.6552 42.6589 41.3084 42.8651 40.956 43.0616L41.93 44.8084ZM39.0223 46.3404C40.0531 45.8219 41.0893 45.2812 41.9332 44.8066L40.9528 43.0634C40.1467 43.5168 39.1409 44.042 38.1237 44.5536L39.0223 46.3404ZM34.0779 48.6471C34.8271 48.3754 37.0104 47.3523 39.0223 46.3404L38.1237 44.5536C36.0917 45.5757 34.0149 46.5426 33.3961 46.7669L34.0779 48.6471ZM29.8604 48.873C31.0279 48.9899 32.6393 49.1687 34.0779 48.6471L33.3961 46.7669C32.4627 47.1053 31.3301 47.0101 30.0596 46.883L29.8604 48.873ZM29.7312 48.8598L29.8582 48.8728L30.0618 46.8832L29.9348 46.8702L29.7312 48.8598ZM28.6472 48.762C29.0089 48.7902 29.3702 48.8228 29.731 48.8598L29.935 46.8702C29.558 46.8316 29.1806 46.7975 28.8028 46.768L28.6472 48.762ZM24.3336 47.8268C25.4971 48.1932 26.8651 48.6267 28.6493 48.7621L28.8007 46.7679C27.2678 46.6515 26.0934 46.2842 24.9345 45.9192L24.3336 47.8268ZM24.3314 47.8261L24.3345 47.827L24.9337 45.9189L24.9306 45.9179L24.3314 47.8261ZM24.3011 47.8164L24.3261 47.8244L24.9359 45.9196L24.9109 45.9116L24.3011 47.8164ZM20.6777 47.0572C22.0435 47.1123 23.0566 47.4241 24.3054 47.8177L24.9066 45.9103C23.6554 45.5159 22.4165 45.1257 20.7583 45.0588L20.6777 47.0572ZM18.6671 47.1003C19.5446 47.0677 20.3939 47.0461 20.6789 47.0572L20.7571 45.0588C20.3781 45.0439 19.4394 45.0703 18.5929 45.1017L18.6671 47.1003ZM18.0399 47.1242C18.2487 47.1159 18.4575 47.1079 18.6663 47.1003L18.5937 45.1017C18.3825 45.1093 18.1713 45.1174 17.9601 45.1258L18.0399 47.1242ZM17 46.125V48H19V46.125H17ZM18 47H12V49H18V47ZM13 48V35H11V48H13ZM12 36H18V34H12V36ZM17 35V36.6108H19V35H17Z" fill="white" fill-opacity="0.3" style="mix-blend-mode:overlay" mask="url(#path-1-inside-1_284_1434)"/>
</g>
<defs>
<filter id="filter0_b_284_1434" x="-12" y="-12" width="84" height="84" filterUnits="userSpaceOnUse" color-interpolation-filters="sRGB">
<feFlood flood-opacity="0" result="BackgroundImageFix"/>
<feGaussianBlur in="BackgroundImageFix" stdDeviation="6"/>
<feComposite in2="SourceAlpha" operator="in" result="effect1_backgroundBlur_284_1434"/>
<feBlend mode="normal" in="SourceGraphic" in2="effect1_backgroundBlur_284_1434" result="shape"/>
</filter>
<linearGradient id="paint0_linear_284_1434" x1="50.9302" y1="48.8372" x2="-36.0719" y2="29.4768" gradientUnits="userSpaceOnUse">
<stop stop-color="#F7D2FB"/>
<stop offset="1" stop-color="#FCF0FD" stop-opacity="0.1"/>
</linearGradient>
</defs>
</svg>
