<svg width="33" height="33" viewBox="0 0 33 33" fill="none" xmlns="http://www.w3.org/2000/svg">
<path d="M29.9062 22.1719H28.3594V9.28125C28.3594 8.59749 28.0878 7.94173 27.6043 7.45824C27.1208 6.97475 26.465 6.70313 25.7812 6.70312H7.21875C6.53499 6.70313 5.87923 6.97475 5.39574 7.45824C4.91225 7.94173 4.64062 8.59749 4.64062 9.28125V22.1719H3.09375C2.957 22.1719 2.82585 22.2262 2.72915 22.3229C2.63245 22.4196 2.57812 22.5507 2.57812 22.6875V24.75C2.57812 25.4338 2.84975 26.0895 3.33324 26.573C3.81673 27.0565 4.47249 27.3281 5.15625 27.3281H27.8438C28.5275 27.3281 29.1833 27.0565 29.6668 26.573C30.1503 26.0895 30.4219 25.4338 30.4219 24.75V22.6875C30.4219 22.5507 30.3675 22.4196 30.2709 22.3229C30.1742 22.2262 30.043 22.1719 29.9062 22.1719ZM5.67188 9.28125C5.67188 8.87099 5.83485 8.47754 6.12494 8.18744C6.41504 7.89735 6.80849 7.73438 7.21875 7.73438H25.7812C26.1915 7.73438 26.585 7.89735 26.8751 8.18744C27.1651 8.47754 27.3281 8.87099 27.3281 9.28125V22.1719H5.67188V9.28125ZM29.3906 24.75C29.3906 25.1603 29.2276 25.5537 28.9376 25.8438C28.6475 26.1339 28.254 26.2969 27.8438 26.2969H5.15625C4.74599 26.2969 4.35254 26.1339 4.06244 25.8438C3.77235 25.5537 3.60938 25.1603 3.60938 24.75V23.2031H29.3906V24.75ZM19.0781 11.3438C19.0781 11.4805 19.0238 11.6117 18.9271 11.7084C18.8304 11.8051 18.6993 11.8594 18.5625 11.8594H14.4375C14.3007 11.8594 14.1696 11.8051 14.0729 11.7084C13.9762 11.6117 13.9219 11.4805 13.9219 11.3438C13.9219 11.207 13.9762 11.0758 14.0729 10.9791C14.1696 10.8824 14.3007 10.8281 14.4375 10.8281H18.5625C18.6993 10.8281 18.8304 10.8824 18.9271 10.9791C19.0238 11.0758 19.0781 11.207 19.0781 11.3438Z" fill="white"/>
</svg>
