<svg width="60" height="60" viewBox="0 0 60 60" fill="none" xmlns="http://www.w3.org/2000/svg">
<g filter="url(#filter0_b_284_1546)">
<mask id="path-1-inside-1_284_1546" fill="white">
<path fill-rule="evenodd" clip-rule="evenodd" d="M60 30C60 46.5685 46.5685 60 30 60C13.4315 60 0 46.5685 0 30C0 13.4315 13.4315 0 30 0C46.5685 0 60 13.4315 60 30ZM30 45.75C21.315 45.75 14.25 38.685 14.25 30C14.25 21.315 21.315 14.25 30 14.25C38.685 14.25 45.75 21.315 45.75 30C45.75 38.685 38.685 45.75 30 45.75ZM30 16.5C22.5525 16.5 16.5 22.5525 16.5 30C16.5 37.4475 22.5525 43.5 30 43.5C37.4475 43.5 43.5 37.4475 43.5 30C43.5 22.5525 37.4475 16.5 30 16.5ZM33.915 35.4675C34.095 35.58 34.2975 35.625 34.5 35.625C34.7457 35.6239 34.9842 35.5427 35.1796 35.3937C35.3749 35.2448 35.5164 35.0362 35.5826 34.7996C35.6487 34.563 35.6359 34.3113 35.5461 34.0827C35.4563 33.854 35.2944 33.6609 35.085 33.5325L30 30.495V22.125C30 21.495 29.505 21 28.875 21C28.245 21 27.75 21.495 27.75 22.125V31.125C27.7478 31.3194 27.7964 31.5109 27.8912 31.6807C27.9859 31.8504 28.1234 31.9924 28.29 32.0925L33.915 35.4675Z"/>
</mask>
<path fill-rule="evenodd" clip-rule="evenodd" d="M60 30C60 46.5685 46.5685 60 30 60C13.4315 60 0 46.5685 0 30C0 13.4315 13.4315 0 30 0C46.5685 0 60 13.4315 60 30ZM30 45.75C21.315 45.75 14.25 38.685 14.25 30C14.25 21.315 21.315 14.25 30 14.25C38.685 14.25 45.75 21.315 45.75 30C45.75 38.685 38.685 45.75 30 45.75ZM30 16.5C22.5525 16.5 16.5 22.5525 16.5 30C16.5 37.4475 22.5525 43.5 30 43.5C37.4475 43.5 43.5 37.4475 43.5 30C43.5 22.5525 37.4475 16.5 30 16.5ZM33.915 35.4675C34.095 35.58 34.2975 35.625 34.5 35.625C34.7457 35.6239 34.9842 35.5427 35.1796 35.3937C35.3749 35.2448 35.5164 35.0362 35.5826 34.7996C35.6487 34.563 35.6359 34.3113 35.5461 34.0827C35.4563 33.854 35.2944 33.6609 35.085 33.5325L30 30.495V22.125C30 21.495 29.505 21 28.875 21C28.245 21 27.75 21.495 27.75 22.125V31.125C27.7478 31.3194 27.7964 31.5109 27.8912 31.6807C27.9859 31.8504 28.1234 31.9924 28.29 32.0925L33.915 35.4675Z" fill="url(#paint0_linear_284_1546)" fill-opacity="0.7"/>
<path d="M34.5 35.625V36.625L34.5046 36.625L34.5 35.625ZM33.915 35.4675L34.445 34.6195L34.4373 34.6147L34.4295 34.61L33.915 35.4675ZM35.1796 35.3937L34.5733 34.5985L34.5733 34.5985L35.1796 35.3937ZM35.5461 34.0827L36.4769 33.7172V33.7172L35.5461 34.0827ZM35.085 33.5325L35.6076 32.6798L35.5978 32.674L35.085 33.5325ZM30 30.495H29V31.0625L29.4872 31.3535L30 30.495ZM27.75 31.125L28.75 31.1366V31.125H27.75ZM28.29 32.0925L27.7749 32.9496L27.7755 32.95L28.29 32.0925ZM30 61C47.1208 61 61 47.1208 61 30H59C59 46.0163 46.0163 59 30 59V61ZM-1 30C-1 47.1208 12.8792 61 30 61V59C13.9837 59 1 46.0163 1 30H-1ZM30 -1C12.8792 -1 -1 12.8792 -1 30H1C1 13.9837 13.9837 1 30 1V-1ZM61 30C61 12.8792 47.1208 -1 30 -1V1C46.0163 1 59 13.9837 59 30H61ZM13.25 30C13.25 39.2373 20.7627 46.75 30 46.75V44.75C21.8673 44.75 15.25 38.1327 15.25 30H13.25ZM30 13.25C20.7627 13.25 13.25 20.7627 13.25 30H15.25C15.25 21.8673 21.8673 15.25 30 15.25V13.25ZM46.75 30C46.75 20.7627 39.2373 13.25 30 13.25V15.25C38.1327 15.25 44.75 21.8673 44.75 30H46.75ZM30 46.75C39.2373 46.75 46.75 39.2373 46.75 30H44.75C44.75 38.1327 38.1327 44.75 30 44.75V46.75ZM17.5 30C17.5 23.1048 23.1048 17.5 30 17.5V15.5C22.0002 15.5 15.5 22.0002 15.5 30H17.5ZM30 42.5C23.1048 42.5 17.5 36.8952 17.5 30H15.5C15.5 37.9998 22.0002 44.5 30 44.5V42.5ZM42.5 30C42.5 36.8952 36.8952 42.5 30 42.5V44.5C37.9998 44.5 44.5 37.9998 44.5 30H42.5ZM30 17.5C36.8952 17.5 42.5 23.1048 42.5 30H44.5C44.5 22.0002 37.9998 15.5 30 15.5V17.5ZM34.5 34.625C34.4723 34.625 34.4557 34.6219 34.4481 34.6199C34.4415 34.6182 34.4418 34.6175 34.445 34.6195L33.385 36.3155C33.7548 36.5467 34.1502 36.625 34.5 36.625V34.625ZM34.5733 34.5985C34.5509 34.6156 34.5235 34.6249 34.4954 34.625L34.5046 36.625C34.9678 36.6228 35.4176 36.4698 35.7859 36.1889L34.5733 34.5985ZM34.6195 34.5304C34.6119 34.5575 34.5957 34.5814 34.5733 34.5985L35.7859 36.1889C36.1542 35.9081 36.4209 35.5149 36.5456 35.0689L34.6195 34.5304ZM34.6153 34.4482C34.6256 34.4744 34.6271 34.5033 34.6195 34.5304L36.5456 35.0689C36.6703 34.6228 36.6462 34.1483 36.4769 33.7172L34.6153 34.4482ZM34.5624 34.3851C34.5864 34.3998 34.605 34.422 34.6153 34.4482L36.4769 33.7172C36.3077 33.2861 36.0024 32.9219 35.6076 32.6799L34.5624 34.3851ZM29.4872 31.3535L34.5722 34.391L35.5978 32.674L30.5128 29.6365L29.4872 31.3535ZM29 22.125V30.495H31V22.125H29ZM28.875 22C28.9218 22 28.9495 22.0163 28.9666 22.0334C28.9837 22.0505 29 22.0782 29 22.125H31C31 20.9427 30.0573 20 28.875 20V22ZM28.75 22.125C28.75 22.0782 28.7663 22.0505 28.7834 22.0334C28.8005 22.0163 28.8282 22 28.875 22V20C27.6927 20 26.75 20.9427 26.75 22.125H28.75ZM28.75 31.125V22.125H26.75V31.125H28.75ZM28.7643 31.1933C28.7547 31.176 28.7497 31.1564 28.7499 31.1365L26.7501 31.1135C26.7458 31.4823 26.8382 31.8459 27.018 32.168L28.7643 31.1933ZM28.8051 31.2354C28.7881 31.2251 28.774 31.2106 28.7643 31.1933L27.018 32.168C27.1977 32.4902 27.4587 32.7596 27.7749 32.9496L28.8051 31.2354ZM34.4295 34.61L28.8045 31.235L27.7755 32.95L33.4005 36.325L34.4295 34.61Z" fill="white" fill-opacity="0.3" style="mix-blend-mode:overlay" mask="url(#path-1-inside-1_284_1546)"/>
</g>
<defs>
<filter id="filter0_b_284_1546" x="-12" y="-12" width="84" height="84" filterUnits="userSpaceOnUse" color-interpolation-filters="sRGB">
<feFlood flood-opacity="0" result="BackgroundImageFix"/>
<feGaussianBlur in="BackgroundImageFix" stdDeviation="6"/>
<feComposite in2="SourceAlpha" operator="in" result="effect1_backgroundBlur_284_1546"/>
<feBlend mode="normal" in="SourceGraphic" in2="effect1_backgroundBlur_284_1546" result="shape"/>
</filter>
<linearGradient id="paint0_linear_284_1546" x1="50.9302" y1="48.8372" x2="-36.0719" y2="29.4768" gradientUnits="userSpaceOnUse">
<stop stop-color="#BC0064"/>
<stop offset="1" stop-color="#FCF0FD" stop-opacity="0.1"/>
</linearGradient>
</defs>
</svg>
