<svg width="60" height="60" viewBox="0 0 60 60" fill="none" xmlns="http://www.w3.org/2000/svg">
<g filter="url(#filter0_b_284_1455)">
<mask id="path-1-inside-1_284_1455" fill="white">
<path fill-rule="evenodd" clip-rule="evenodd" d="M30 60C46.5685 60 60 46.5685 60 30C60 13.4315 46.5685 0 30 0C13.4315 0 0 13.4315 0 30C0 46.5685 13.4315 60 30 60ZM23.9625 39.375L21 40.575V36.1125L22.7625 34.9125C22.8865 35.6625 23.055 36.4125 23.268 37.1625C23.481 37.9125 23.7125 38.65 23.9625 39.375ZM34.0875 35.343C33.8125 36.781 33.45 38 33 39H27C26.55 38.001 26.1875 36.7825 25.9125 35.3445C25.6375 33.9065 25.5 32.4375 25.5 30.9375C25.5 28.4645 25.9125 26.1215 26.7375 23.9085C27.5625 21.6955 28.65 19.989 30 18.789C31.35 19.988 32.4375 21.694 33.2625 23.907C34.0875 26.12 34.5 28.464 34.5 30.939C34.5 32.437 34.3625 33.905 34.0875 35.343ZM27.8805 30.618C28.4685 31.206 29.175 31.5 30 31.5C30.824 31.501 31.53 31.2075 32.118 30.6195C32.706 30.0315 33 29.325 33 28.5C33.001 27.676 32.7075 26.97 32.1195 26.382C31.5315 25.794 30.825 25.5 30 25.5C29.176 25.499 28.47 25.7925 27.882 26.3805C27.294 26.9685 27 27.675 27 28.5C26.999 29.324 27.2925 30.03 27.8805 30.618ZM39 36.1125V40.575L36.0375 39.375C36.2865 38.65 36.5175 37.9125 36.7305 37.1625C36.9435 36.4125 37.1125 35.6625 37.2375 34.9125L39 36.1125ZM35.607 21.825C34.344 19.05 32.475 16.7625 30 14.9625C27.526 16.7625 25.6575 19.05 24.3945 21.825C23.1315 24.6 22.5 27.825 22.5 31.5L19.35 33.6C18.926 33.875 18.595 34.2375 18.357 34.6875C18.119 35.1375 18 35.6125 18 36.1125V45L25.4625 42H34.5375L42 45V36.1125C42.001 35.6125 41.8825 35.1375 41.6445 34.6875C41.4065 34.2375 41.075 33.875 40.65 33.6L37.5 31.5C37.501 27.825 36.87 24.6 35.607 21.825Z"/>
</mask>
<path fill-rule="evenodd" clip-rule="evenodd" d="M30 60C46.5685 60 60 46.5685 60 30C60 13.4315 46.5685 0 30 0C13.4315 0 0 13.4315 0 30C0 46.5685 13.4315 60 30 60ZM23.9625 39.375L21 40.575V36.1125L22.7625 34.9125C22.8865 35.6625 23.055 36.4125 23.268 37.1625C23.481 37.9125 23.7125 38.65 23.9625 39.375ZM34.0875 35.343C33.8125 36.781 33.45 38 33 39H27C26.55 38.001 26.1875 36.7825 25.9125 35.3445C25.6375 33.9065 25.5 32.4375 25.5 30.9375C25.5 28.4645 25.9125 26.1215 26.7375 23.9085C27.5625 21.6955 28.65 19.989 30 18.789C31.35 19.988 32.4375 21.694 33.2625 23.907C34.0875 26.12 34.5 28.464 34.5 30.939C34.5 32.437 34.3625 33.905 34.0875 35.343ZM27.8805 30.618C28.4685 31.206 29.175 31.5 30 31.5C30.824 31.501 31.53 31.2075 32.118 30.6195C32.706 30.0315 33 29.325 33 28.5C33.001 27.676 32.7075 26.97 32.1195 26.382C31.5315 25.794 30.825 25.5 30 25.5C29.176 25.499 28.47 25.7925 27.882 26.3805C27.294 26.9685 27 27.675 27 28.5C26.999 29.324 27.2925 30.03 27.8805 30.618ZM39 36.1125V40.575L36.0375 39.375C36.2865 38.65 36.5175 37.9125 36.7305 37.1625C36.9435 36.4125 37.1125 35.6625 37.2375 34.9125L39 36.1125ZM35.607 21.825C34.344 19.05 32.475 16.7625 30 14.9625C27.526 16.7625 25.6575 19.05 24.3945 21.825C23.1315 24.6 22.5 27.825 22.5 31.5L19.35 33.6C18.926 33.875 18.595 34.2375 18.357 34.6875C18.119 35.1375 18 35.6125 18 36.1125V45L25.4625 42H34.5375L42 45V36.1125C42.001 35.6125 41.8825 35.1375 41.6445 34.6875C41.4065 34.2375 41.075 33.875 40.65 33.6L37.5 31.5C37.501 27.825 36.87 24.6 35.607 21.825Z" fill="url(#paint0_linear_284_1455)" fill-opacity="0.7"/>
<path d="M21 40.575H20V42.059L21.3754 41.5018L21 40.575ZM23.9625 39.375L24.3379 40.3018L25.2171 39.9457L24.9079 39.049L23.9625 39.375ZM21 36.1125L20.4372 35.2859L20 35.5836V36.1125H21ZM22.7625 34.9125L23.7491 34.7494L23.4937 33.2049L22.1997 34.0859L22.7625 34.9125ZM23.268 37.1625L22.306 37.4357L23.268 37.1625ZM33 39V40H33.6466L33.9119 39.4104L33 39ZM34.0875 35.343L35.0697 35.5308V35.5308L34.0875 35.343ZM27 39L26.0882 39.4107L26.3537 40H27V39ZM25.9125 35.3445L24.9303 35.5323V35.5323L25.9125 35.3445ZM26.7375 23.9085L25.8005 23.5592L26.7375 23.9085ZM30 18.789L30.6641 18.0413L29.9997 17.4513L29.3356 18.0416L30 18.789ZM33.2625 23.907L32.3255 24.2563H32.3255L33.2625 23.907ZM30 31.5L30.0012 30.5H30V31.5ZM32.118 30.6195L31.4109 29.9124H31.4109L32.118 30.6195ZM33 28.5L32 28.4988V28.5H33ZM30 25.5L29.9988 26.5H30V25.5ZM27 28.5L28 28.5012V28.5H27ZM39 40.575L38.6246 41.5018L40 42.059V40.575H39ZM39 36.1125H40V35.5836L39.5628 35.2859L39 36.1125ZM36.0375 39.375L35.0917 39.0502L34.784 39.9462L35.6621 40.3018L36.0375 39.375ZM37.2375 34.9125L37.8003 34.0859L36.5081 33.2061L36.2511 34.7481L37.2375 34.9125ZM30 14.9625L30.5882 14.1538L29.9999 13.7259L29.4117 14.1539L30 14.9625ZM35.607 21.825L34.6968 22.2392L35.607 21.825ZM24.3945 21.825L23.4843 21.4108L24.3945 21.825ZM22.5 31.5L23.0547 32.3321L23.5 32.0352V31.5H22.5ZM19.35 33.6L19.8942 34.439L19.9047 34.432L19.35 33.6ZM18.357 34.6875L19.241 35.155H19.241L18.357 34.6875ZM18 45H17V46.4798L18.373 45.9278L18 45ZM25.4625 42V41H25.269L25.0895 41.0722L25.4625 42ZM34.5375 42L34.9105 41.0722L34.731 41H34.5375V42ZM42 45L41.627 45.9278L43 46.4798V45H42ZM42 36.1125L41 36.1105V36.1125H42ZM40.65 33.6L40.0952 34.4321L40.1067 34.4396L40.65 33.6ZM37.5 31.5L36.5 31.4997L36.4999 32.0351L36.9453 32.3321L37.5 31.5ZM59 30C59 46.0163 46.0163 59 30 59V61C47.1208 61 61 47.1208 61 30H59ZM30 1C46.0163 1 59 13.9837 59 30H61C61 12.8792 47.1208 -1 30 -1V1ZM1 30C1 13.9837 13.9837 1 30 1V-1C12.8792 -1 -1 12.8792 -1 30H1ZM30 59C13.9837 59 1 46.0163 1 30H-1C-1 47.1208 12.8792 61 30 61V59ZM21.3754 41.5018L24.3379 40.3018L23.5871 38.4482L20.6246 39.6481L21.3754 41.5018ZM20 36.1125V40.575H22V36.1125H20ZM22.1997 34.0859L20.4372 35.2859L21.5628 36.9391L23.3253 35.7391L22.1997 34.0859ZM24.23 36.8893C24.027 36.1746 23.8668 35.4613 23.7491 34.7494L21.7759 35.0756C21.9062 35.8637 22.083 36.6504 22.306 37.4357L24.23 36.8893ZM24.9079 39.049C24.664 38.3417 24.438 37.6218 24.23 36.8893L22.306 37.4357C22.524 38.2031 22.761 38.9583 23.0171 39.701L24.9079 39.049ZM33.9119 39.4104C34.4026 38.32 34.7846 37.0217 35.0697 35.5308L33.1053 35.1552C32.8404 36.5403 32.4974 37.68 32.0881 38.5896L33.9119 39.4104ZM27 40H33V38H27V40ZM24.9303 35.5323C25.2154 37.0232 25.5975 38.3212 26.0882 39.4107L27.9118 38.5893C27.5025 37.6808 27.1596 36.5418 26.8947 35.1567L24.9303 35.5323ZM24.5 30.9375C24.5 32.499 24.6432 34.0309 24.9303 35.5323L26.8947 35.1567C26.6318 33.7821 26.5 32.376 26.5 30.9375H24.5ZM25.8005 23.5592C24.9319 25.8891 24.5 28.3509 24.5 30.9375H26.5C26.5 28.5781 26.8931 26.3539 27.6745 24.2578L25.8005 23.5592ZM29.3356 18.0416C27.8319 19.3783 26.6656 21.2387 25.8005 23.5592L27.6745 24.2578C28.4594 22.1523 29.4681 20.5997 30.6644 19.5364L29.3356 18.0416ZM34.1995 23.5577C33.3344 21.2372 32.168 19.3771 30.6641 18.0413L29.3359 19.5367C30.532 20.5989 31.5406 22.1508 32.3255 24.2563L34.1995 23.5577ZM35.5 30.939C35.5 28.3505 35.0681 25.8877 34.1995 23.5577L32.3255 24.2563C33.1069 26.3523 33.5 28.5775 33.5 30.939H35.5ZM35.0697 35.5308C35.3568 34.0295 35.5 32.4986 35.5 30.939H33.5C33.5 32.3754 33.3682 33.7805 33.1053 35.1552L35.0697 35.5308ZM30 30.5C29.4426 30.5 28.9897 30.313 28.5876 29.9109L27.1734 31.3251C27.9473 32.099 28.9074 32.5 30 32.5V30.5ZM31.4109 29.9124C31.0088 30.3145 30.5568 30.5007 30.0012 30.5L29.9988 32.5C31.0912 32.5013 32.0512 32.1005 32.8251 31.3266L31.4109 29.9124ZM32 28.5C32 29.0574 31.813 29.5103 31.4109 29.9124L32.8251 31.3266C33.599 30.5527 34 29.5926 34 28.5H32ZM31.4124 27.0891C31.8145 27.4912 32.0007 27.9431 32 28.4988L34 28.5012C34.0013 27.4088 33.6005 26.4488 32.8266 25.6749L31.4124 27.0891ZM30 26.5C30.5574 26.5 31.0103 26.687 31.4124 27.0891L32.8266 25.6749C32.0527 24.901 31.0926 24.5 30 24.5V26.5ZM28.5891 27.0876C28.9912 26.6855 29.4432 26.4993 29.9988 26.5L30.0012 24.5C28.9088 24.4987 27.9488 24.8995 27.1749 25.6734L28.5891 27.0876ZM28 28.5C28 27.9426 28.187 27.4897 28.5891 27.0876L27.1749 25.6734C26.401 26.4473 26 27.4074 26 28.5H28ZM28.5876 29.9109C28.1855 29.5088 27.9993 29.0568 28 28.5012L26 28.4988C25.9987 29.5912 26.3995 30.5512 27.1734 31.3251L28.5876 29.9109ZM40 40.575V36.1125H38V40.575H40ZM35.6621 40.3018L38.6246 41.5018L39.3754 39.6481L36.4129 38.4482L35.6621 40.3018ZM35.7685 36.8893C35.5604 37.6222 35.3348 38.3425 35.0917 39.0502L36.9833 39.6998C37.2382 38.9575 37.4746 38.2028 37.6925 37.4357L35.7685 36.8893ZM36.2511 34.7481C36.1324 35.4605 35.9716 36.1742 35.7685 36.8893L37.6925 37.4357C37.9154 36.6508 38.0926 35.8645 38.2239 35.0769L36.2511 34.7481ZM39.5628 35.2859L37.8003 34.0859L36.6747 35.7391L38.4372 36.9391L39.5628 35.2859ZM29.4118 15.7712C31.7478 17.4701 33.5056 19.6219 34.6968 22.2392L36.5172 21.4108C35.1824 18.4781 33.2022 16.0549 30.5882 14.1538L29.4118 15.7712ZM25.3047 22.2392C26.4959 19.6218 28.2533 17.47 30.5883 15.7711L29.4117 14.1539C26.7987 16.055 24.8191 18.4782 23.4843 21.4108L25.3047 22.2392ZM23.5 31.5C23.5 27.9391 24.1117 24.8603 25.3047 22.2392L23.4843 21.4108C22.1513 24.3397 21.5 27.7109 21.5 31.5H23.5ZM19.9047 34.432L23.0547 32.3321L21.9453 30.6679L18.7953 32.7679L19.9047 34.432ZM19.241 35.155C19.3998 34.8546 19.6143 34.6205 19.8942 34.439L18.8058 32.761C18.2377 33.1295 17.7902 33.6203 17.473 34.22L19.241 35.155ZM19 36.1125C19 35.7785 19.0777 35.4637 19.241 35.155L17.473 34.22C17.1603 34.8113 17 35.4465 17 36.1125H19ZM19 45V36.1125H17V45H19ZM25.0895 41.0722L17.627 44.0722L18.373 45.9278L25.8355 42.9278L25.0895 41.0722ZM34.5375 41H25.4625V43H34.5375V41ZM42.373 44.0722L34.9105 41.0722L34.1645 42.9278L41.627 45.9278L42.373 44.0722ZM41 36.1125V45H43V36.1125H41ZM40.7605 35.155C40.9235 35.4631 41.0007 35.7772 41 36.1105L43 36.1145C43.0013 35.4478 42.8415 34.8119 42.5285 34.22L40.7605 35.155ZM40.1067 34.4396C40.3874 34.6212 40.602 34.8552 40.7605 35.155L42.5285 34.22C42.211 33.6198 41.7626 33.1288 41.1933 32.7604L40.1067 34.4396ZM36.9453 32.3321L40.0953 34.432L41.2047 32.7679L38.0547 30.6679L36.9453 32.3321ZM34.6968 22.2392C35.8897 24.8602 36.501 27.9389 36.5 31.4997L38.5 31.5003C38.501 27.7111 37.8503 24.3398 36.5172 21.4108L34.6968 22.2392Z" fill="white" fill-opacity="0.3" style="mix-blend-mode:overlay" mask="url(#path-1-inside-1_284_1455)"/>
</g>
<defs>
<filter id="filter0_b_284_1455" x="-12" y="-12" width="84" height="84" filterUnits="userSpaceOnUse" color-interpolation-filters="sRGB">
<feFlood flood-opacity="0" result="BackgroundImageFix"/>
<feGaussianBlur in="BackgroundImageFix" stdDeviation="6"/>
<feComposite in2="SourceAlpha" operator="in" result="effect1_backgroundBlur_284_1455"/>
<feBlend mode="normal" in="SourceGraphic" in2="effect1_backgroundBlur_284_1455" result="shape"/>
</filter>
<linearGradient id="paint0_linear_284_1455" x1="50.9302" y1="48.8372" x2="-36.0719" y2="29.4768" gradientUnits="userSpaceOnUse">
<stop stop-color="#F7D2FB"/>
<stop offset="1" stop-color="#FCF0FD" stop-opacity="0.1"/>
</linearGradient>
</defs>
</svg>
