<svg width="60" height="60" viewBox="0 0 60 60" fill="none" xmlns="http://www.w3.org/2000/svg">
<g filter="url(#filter0_b_284_1555)">
<mask id="path-1-inside-1_284_1555" fill="white">
<path fill-rule="evenodd" clip-rule="evenodd" d="M30 60C46.5685 60 60 46.5685 60 30C60 13.4315 46.5685 0 30 0C13.4315 0 0 13.4315 0 30C0 46.5685 13.4315 60 30 60ZM27.219 34.128L27.2325 34.1595C27.4599 34.7057 27.8443 35.1722 28.3369 35.4998C28.8296 35.8274 29.4084 36.0015 30 36C30.7312 36.001 31.4374 35.7336 31.9845 35.2485C32.607 34.6995 33 33.8955 33 32.9985C33.0003 32.3105 32.7641 31.6432 32.3309 31.1086C31.8978 30.5741 31.294 30.2046 30.6209 30.0622C29.9478 29.9198 29.2461 30.0131 28.6336 30.3265C28.0211 30.6399 27.5349 31.1543 27.2565 31.7835C25.8746 31.2963 24.6474 30.4499 23.701 29.3313C22.7546 28.2127 22.1231 26.8623 21.8715 25.4188C21.6198 23.9753 21.7571 22.4909 22.2691 21.118C22.7811 19.7451 23.6495 18.5334 24.785 17.6073C25.9204 16.6812 27.282 16.0741 28.7298 15.8485C30.1775 15.6229 31.6593 15.7868 33.0227 16.3235C34.3861 16.8602 35.582 17.7502 36.4875 18.9022C37.393 20.0541 37.9755 21.4264 38.175 22.878C38.2575 23.493 38.754 24 39.375 24C39.996 24 40.506 23.4945 40.44 22.8765C40.1531 20.204 38.8522 17.7433 36.8053 16.0013C34.7584 14.2592 32.1214 13.3685 29.4374 13.5125C26.7535 13.6565 24.2269 14.8243 22.3782 16.7753C20.5295 18.7264 19.4993 21.3122 19.5 24C19.4985 26.1903 20.1824 28.3262 21.4558 30.1083C22.7292 31.8903 24.5283 33.2293 26.601 33.9375L26.616 33.9435C26.8151 34.011 27.0162 34.0726 27.219 34.128ZM23.9927 35.2485C23.9936 35.249 23.9946 35.2495 23.9955 35.25V35.2485H23.9927ZM20.991 33.0225C21.8772 33.9074 22.8886 34.6574 23.9927 35.2485H21.3795C21.0811 35.2485 20.795 35.367 20.584 35.578C20.373 35.789 20.2545 36.0751 20.2545 36.3735V37.239C20.2546 38.0432 20.5419 38.8208 21.0645 39.432C22.944 41.6325 25.893 42.7515 30 42.7515C34.1085 42.7515 37.059 41.6325 38.9445 39.4305C39.468 38.8192 39.7558 38.0409 39.756 37.236V36.3735C39.756 36.0751 39.6375 35.789 39.4265 35.578C39.2155 35.367 38.9294 35.2485 38.631 35.2485H34.7445C35.07 34.5675 35.25 33.8055 35.25 32.9985H38.6325C39.0755 32.9987 39.5142 33.0862 39.9234 33.2559C40.3326 33.4256 40.7044 33.6742 41.0175 33.9876C41.3306 34.301 41.5789 34.673 41.7483 35.0824C41.9176 35.4918 42.0047 35.9305 42.0045 36.3735V37.236C42.0044 38.5771 41.5251 39.8741 40.653 40.893C38.2995 43.644 34.719 45.003 30 45.003C25.281 45.003 21.702 43.644 19.353 40.893C18.483 39.8745 18.006 38.5785 18.006 37.2405V36.3735C18.0063 35.5462 18.3106 34.7478 18.8609 34.13C19.4112 33.5122 20.1692 33.1181 20.991 33.0225ZM24.7779 21.0471C24.2682 21.9478 24.0003 22.9651 24 24C23.9981 24.9811 24.2376 25.9476 24.6975 26.8143C25.1574 27.6809 25.8235 28.4211 26.637 28.9695C27.546 28.209 28.719 27.75 30 27.75C31.23 27.7481 32.4213 28.1799 33.3645 28.9695C34.2214 28.3892 34.9136 27.5971 35.3739 26.6701C35.8342 25.7432 36.0469 24.713 35.9913 23.6795C35.9358 22.6461 35.6139 21.6446 35.0569 20.7724C34.4999 19.9001 33.7267 19.1868 32.8126 18.7016C31.8984 18.2165 30.8743 17.9761 29.8397 18.0037C28.8051 18.0314 27.7953 18.3262 26.9084 18.8594C26.0214 19.3927 25.2875 20.1463 24.7779 21.0471ZM30 27.75C29.0054 27.75 28.0516 27.3549 27.3484 26.6516C26.6451 25.9484 26.25 24.9946 26.25 24C26.25 23.0054 26.6451 22.0516 27.3484 21.3484C28.0516 20.6451 29.0054 20.25 30 20.25C30.9946 20.25 31.9484 20.6451 32.6516 21.3484C33.3549 22.0516 33.75 23.0054 33.75 24C33.75 24.9946 33.3549 25.9484 32.6516 26.6516C31.9484 27.3549 30.9946 27.75 30 27.75Z"/>
</mask>
<path fill-rule="evenodd" clip-rule="evenodd" d="M30 60C46.5685 60 60 46.5685 60 30C60 13.4315 46.5685 0 30 0C13.4315 0 0 13.4315 0 30C0 46.5685 13.4315 60 30 60ZM27.219 34.128L27.2325 34.1595C27.4599 34.7057 27.8443 35.1722 28.3369 35.4998C28.8296 35.8274 29.4084 36.0015 30 36C30.7312 36.001 31.4374 35.7336 31.9845 35.2485C32.607 34.6995 33 33.8955 33 32.9985C33.0003 32.3105 32.7641 31.6432 32.3309 31.1086C31.8978 30.5741 31.294 30.2046 30.6209 30.0622C29.9478 29.9198 29.2461 30.0131 28.6336 30.3265C28.0211 30.6399 27.5349 31.1543 27.2565 31.7835C25.8746 31.2963 24.6474 30.4499 23.701 29.3313C22.7546 28.2127 22.1231 26.8623 21.8715 25.4188C21.6198 23.9753 21.7571 22.4909 22.2691 21.118C22.7811 19.7451 23.6495 18.5334 24.785 17.6073C25.9204 16.6812 27.282 16.0741 28.7298 15.8485C30.1775 15.6229 31.6593 15.7868 33.0227 16.3235C34.3861 16.8602 35.582 17.7502 36.4875 18.9022C37.393 20.0541 37.9755 21.4264 38.175 22.878C38.2575 23.493 38.754 24 39.375 24C39.996 24 40.506 23.4945 40.44 22.8765C40.1531 20.204 38.8522 17.7433 36.8053 16.0013C34.7584 14.2592 32.1214 13.3685 29.4374 13.5125C26.7535 13.6565 24.2269 14.8243 22.3782 16.7753C20.5295 18.7264 19.4993 21.3122 19.5 24C19.4985 26.1903 20.1824 28.3262 21.4558 30.1083C22.7292 31.8903 24.5283 33.2293 26.601 33.9375L26.616 33.9435C26.8151 34.011 27.0162 34.0726 27.219 34.128ZM23.9927 35.2485C23.9936 35.249 23.9946 35.2495 23.9955 35.25V35.2485H23.9927ZM20.991 33.0225C21.8772 33.9074 22.8886 34.6574 23.9927 35.2485H21.3795C21.0811 35.2485 20.795 35.367 20.584 35.578C20.373 35.789 20.2545 36.0751 20.2545 36.3735V37.239C20.2546 38.0432 20.5419 38.8208 21.0645 39.432C22.944 41.6325 25.893 42.7515 30 42.7515C34.1085 42.7515 37.059 41.6325 38.9445 39.4305C39.468 38.8192 39.7558 38.0409 39.756 37.236V36.3735C39.756 36.0751 39.6375 35.789 39.4265 35.578C39.2155 35.367 38.9294 35.2485 38.631 35.2485H34.7445C35.07 34.5675 35.25 33.8055 35.25 32.9985H38.6325C39.0755 32.9987 39.5142 33.0862 39.9234 33.2559C40.3326 33.4256 40.7044 33.6742 41.0175 33.9876C41.3306 34.301 41.5789 34.673 41.7483 35.0824C41.9176 35.4918 42.0047 35.9305 42.0045 36.3735V37.236C42.0044 38.5771 41.5251 39.8741 40.653 40.893C38.2995 43.644 34.719 45.003 30 45.003C25.281 45.003 21.702 43.644 19.353 40.893C18.483 39.8745 18.006 38.5785 18.006 37.2405V36.3735C18.0063 35.5462 18.3106 34.7478 18.8609 34.13C19.4112 33.5122 20.1692 33.1181 20.991 33.0225ZM24.7779 21.0471C24.2682 21.9478 24.0003 22.9651 24 24C23.9981 24.9811 24.2376 25.9476 24.6975 26.8143C25.1574 27.6809 25.8235 28.4211 26.637 28.9695C27.546 28.209 28.719 27.75 30 27.75C31.23 27.7481 32.4213 28.1799 33.3645 28.9695C34.2214 28.3892 34.9136 27.5971 35.3739 26.6701C35.8342 25.7432 36.0469 24.713 35.9913 23.6795C35.9358 22.6461 35.6139 21.6446 35.0569 20.7724C34.4999 19.9001 33.7267 19.1868 32.8126 18.7016C31.8984 18.2165 30.8743 17.9761 29.8397 18.0037C28.8051 18.0314 27.7953 18.3262 26.9084 18.8594C26.0214 19.3927 25.2875 20.1463 24.7779 21.0471ZM30 27.75C29.0054 27.75 28.0516 27.3549 27.3484 26.6516C26.6451 25.9484 26.25 24.9946 26.25 24C26.25 23.0054 26.6451 22.0516 27.3484 21.3484C28.0516 20.6451 29.0054 20.25 30 20.25C30.9946 20.25 31.9484 20.6451 32.6516 21.3484C33.3549 22.0516 33.75 23.0054 33.75 24C33.75 24.9946 33.3549 25.9484 32.6516 26.6516C31.9484 27.3549 30.9946 27.75 30 27.75Z" fill="url(#paint0_linear_284_1555)" fill-opacity="0.7"/>
<path d="M27.2325 34.1595L28.1557 33.7751L28.1517 33.7656L27.2325 34.1595ZM27.219 34.128L28.1382 33.7341L27.9481 33.2906L27.4827 33.1634L27.219 34.128ZM30 36L30.0014 35L29.9975 35L30 36ZM31.9845 35.2485L31.3231 34.4985L31.3211 34.5003L31.9845 35.2485ZM33 32.9985L32 32.9981V32.9985H33ZM32.3309 31.1086L33.1079 30.4791H33.1079L32.3309 31.1086ZM28.6336 30.3265L29.0891 31.2168H29.0891L28.6336 30.3265ZM27.2565 31.7835L26.924 32.7266L27.7966 33.0343L28.171 32.1881L27.2565 31.7835ZM23.701 29.3313L24.4644 28.6854H24.4644L23.701 29.3313ZM21.8715 25.4188L22.8566 25.247V25.247L21.8715 25.4188ZM28.7298 15.8485L28.5758 14.8604L28.7298 15.8485ZM33.0227 16.3235L32.6564 17.254V17.254L33.0227 16.3235ZM36.4875 18.9022L35.7013 19.5202L35.7013 19.5202L36.4875 18.9022ZM38.175 22.878L39.1661 22.745L39.1657 22.7418L38.175 22.878ZM40.44 22.8765L41.4343 22.7703L41.4343 22.7697L40.44 22.8765ZM36.8053 16.0013L37.4534 15.2397L36.8053 16.0013ZM29.4374 13.5125L29.491 14.511L29.4374 13.5125ZM22.3782 16.7753L23.1041 17.4632V17.4632L22.3782 16.7753ZM19.5 24L20.5 24.0007V23.9998L19.5 24ZM21.4558 30.1083L20.6422 30.6896L21.4558 30.1083ZM26.601 33.9375L26.9724 33.009L26.9486 32.9995L26.9243 32.9912L26.601 33.9375ZM26.616 33.9435L26.2446 34.872L26.2695 34.8819L26.2948 34.8905L26.616 33.9435ZM23.9955 35.25L23.5247 36.1323L24.9955 36.9171V35.25H23.9955ZM23.9955 35.2485H24.9955V34.2485H23.9955V35.2485ZM20.991 33.0225L21.6976 32.3149L21.3556 31.9733L20.8754 32.0292L20.991 33.0225ZM20.584 35.578L19.8769 34.8709L19.8769 34.8709L20.584 35.578ZM20.2545 37.239H19.2545V37.2391L20.2545 37.239ZM21.0645 39.432L21.8249 38.7825L21.8245 38.7821L21.0645 39.432ZM38.9445 39.4305L38.1849 38.7801L38.1849 38.7801L38.9445 39.4305ZM39.756 37.236L40.756 37.2362V37.236H39.756ZM39.4265 35.578L40.1336 34.8709L40.1336 34.8709L39.4265 35.578ZM34.7445 35.2485L33.8423 34.8173L33.1582 36.2485H34.7445V35.2485ZM35.25 32.9985V31.9985H34.25V32.9985H35.25ZM38.6325 32.9985L38.6329 31.9985H38.6325V32.9985ZM41.0175 33.9876L41.7249 33.2808L41.7249 33.2808L41.0175 33.9876ZM41.7483 35.0824L42.6723 34.7001L42.6723 34.7001L41.7483 35.0824ZM42.0045 36.3735L41.0045 36.3731V36.3735H42.0045ZM42.0045 37.236L43.0045 37.2361V37.236H42.0045ZM40.653 40.893L39.8933 40.2428L39.8931 40.2429L40.653 40.893ZM19.353 40.893L20.1135 40.2436L20.1134 40.2435L19.353 40.893ZM18.006 36.3735L17.006 36.3731V36.3735H18.006ZM18.8609 34.13L19.6076 34.7952L19.6076 34.7952L18.8609 34.13ZM24 24L25 24.002V24.0003L24 24ZM24.7779 21.0471L23.9075 20.5546V20.5546L24.7779 21.0471ZM24.6975 26.8143L23.8142 27.283H23.8142L24.6975 26.8143ZM26.637 28.9695L26.078 29.7987L26.7018 30.2191L27.2787 29.7365L26.637 28.9695ZM33.3645 28.9695L32.7226 29.7363L33.3008 30.2204L33.9253 29.7975L33.3645 28.9695ZM35.3739 26.6701L36.2696 27.1149V27.1149L35.3739 26.6701ZM35.9913 23.6795L34.9928 23.7332V23.7332L35.9913 23.6795ZM35.0569 20.7724L34.2141 21.3106L34.2141 21.3106L35.0569 20.7724ZM32.8126 18.7016L33.2813 17.8183H33.2813L32.8126 18.7016ZM26.9084 18.8594L26.3931 18.0024H26.3931L26.9084 18.8594ZM27.3484 26.6516L28.0555 25.9445L28.0555 25.9445L27.3484 26.6516ZM27.3484 21.3484L28.0555 22.0555L28.0555 22.0555L27.3484 21.3484ZM32.6516 21.3484L31.9445 22.0555L31.9445 22.0555L32.6516 21.3484ZM32.6516 26.6516L31.9445 25.9445L31.9445 25.9445L32.6516 26.6516ZM59 30C59 46.0163 46.0163 59 30 59V61C47.1208 61 61 47.1208 61 30H59ZM30 1C46.0163 1 59 13.9837 59 30H61C61 12.8792 47.1208 -1 30 -1V1ZM1 30C1 13.9837 13.9837 1 30 1V-1C12.8792 -1 -1 12.8792 -1 30H1ZM30 59C13.9837 59 1 46.0163 1 30H-1C-1 47.1208 12.8792 61 30 61V59ZM28.1517 33.7656L28.1382 33.7341L26.2998 34.5219L26.3133 34.5534L28.1517 33.7656ZM28.8907 34.6671C28.5628 34.4491 28.307 34.1387 28.1557 33.7752L26.3093 34.5438C26.6128 35.2728 27.1257 35.8952 27.7831 36.3325L28.8907 34.6671ZM29.9975 35C29.6037 35.001 29.2185 34.8852 28.8907 34.6671L27.7831 36.3325C28.4406 36.7697 29.213 37.002 30.0025 37L29.9975 35ZM31.3211 34.5003C30.9572 34.8229 30.4876 35.0007 30.0014 35L29.9986 37C30.9748 37.0014 31.9175 36.6444 32.6479 35.9967L31.3211 34.5003ZM32 32.9985C32 33.5968 31.7393 34.1314 31.3231 34.4985L32.6459 35.9985C33.4747 35.2676 34 34.1942 34 32.9985H32ZM31.5539 31.7382C31.8427 32.0946 32.0002 32.5394 32 32.9981L34 32.9989C34.0004 32.0815 33.6854 31.1919 33.1079 30.4791L31.5539 31.7382ZM30.4139 31.0406C30.8627 31.1355 31.2652 31.3818 31.5539 31.7382L33.1079 30.4791C32.5304 29.7663 31.7254 29.2737 30.8279 29.0839L30.4139 31.0406ZM29.0891 31.2168C29.4974 31.0078 29.9652 30.9456 30.4139 31.0406L30.8279 29.0839C29.9303 28.894 28.9948 29.0184 28.1781 29.4363L29.0891 31.2168ZM28.171 32.1881C28.3566 31.7686 28.6807 31.4257 29.0891 31.2168L28.1781 29.4363C27.3614 29.8541 26.7132 30.54 26.342 31.3789L28.171 32.1881ZM22.9376 29.9772C23.9987 31.2313 25.3746 32.1803 26.924 32.7266L27.589 30.8404C26.3746 30.4122 25.2962 29.6684 24.4644 28.6854L22.9376 29.9772ZM20.8863 25.5905C21.1685 27.2089 21.8765 28.723 22.9376 29.9772L24.4644 28.6854C23.6327 27.7023 23.0778 26.5156 22.8566 25.247L20.8863 25.5905ZM21.3321 20.7686C20.758 22.3078 20.6042 23.9721 20.8863 25.5905L22.8566 25.247C22.6354 23.9785 22.7561 22.674 23.206 21.4675L21.3321 20.7686ZM24.1529 16.8324C22.8798 17.8707 21.9062 19.2293 21.3321 20.7686L23.206 21.4675C23.656 20.261 24.4192 19.1961 25.417 18.3822L24.1529 16.8324ZM28.5758 14.8604C26.9525 15.1134 25.426 15.794 24.1529 16.8324L25.417 18.3822C26.4149 17.5683 27.6114 17.0348 28.8837 16.8365L28.5758 14.8604ZM33.3889 15.393C31.8603 14.7913 30.199 14.6074 28.5758 14.8604L28.8837 16.8365C30.156 16.6383 31.4582 16.7824 32.6564 17.254L33.3889 15.393ZM37.2737 18.2842C36.2585 16.9926 34.9176 15.9947 33.3889 15.393L32.6564 17.254C33.8546 17.7256 34.9056 18.5078 35.7013 19.5202L37.2737 18.2842ZM39.1657 22.7418C38.942 21.1143 38.289 19.5757 37.2737 18.2842L35.7013 19.5202C36.4971 20.5325 37.009 21.7385 37.1843 23.0142L39.1657 22.7418ZM39.375 23C39.3472 23 39.3099 22.9908 39.2657 22.9483C39.2177 22.9022 39.1775 22.8295 39.1661 22.745L37.1839 23.011C37.3218 24.0388 38.1731 25 39.375 25V23ZM39.4457 22.9827C39.4459 22.9851 39.4454 22.9808 39.4476 22.9747C39.4493 22.9701 39.4503 22.9707 39.4462 22.9749C39.4367 22.9848 39.4129 23 39.375 23V25C40.5167 25 41.571 24.0501 41.4343 22.7703L39.4457 22.9827ZM36.1572 16.7628C38.0091 18.339 39.1861 20.5653 39.4457 22.9832L41.4343 22.7697C41.12 19.8427 39.6953 17.1477 37.4534 15.2397L36.1572 16.7628ZM29.491 14.511C31.9194 14.3807 34.3053 15.1867 36.1572 16.7628L37.4534 15.2397C35.2116 13.3318 32.3235 12.3562 29.3839 12.5139L29.491 14.511ZM23.1041 17.4632C24.7767 15.6979 27.0627 14.6413 29.491 14.511L29.3839 12.5139C26.4443 12.6716 23.6771 13.9506 21.6523 16.0875L23.1041 17.4632ZM20.5 23.9998C20.4994 21.5679 21.4314 19.2284 23.1041 17.4632L21.6523 16.0875C19.6275 18.2244 18.4993 21.0564 18.5 24.0002L20.5 23.9998ZM22.2694 29.5269C21.1174 27.9146 20.4986 25.9823 20.5 24.0007L18.5 23.9993C18.4984 26.3983 19.2474 28.7377 20.6422 30.6896L22.2694 29.5269ZM26.9243 32.9912C25.0492 32.3505 23.4215 31.1391 22.2694 29.5269L20.6422 30.6896C22.037 32.6416 24.0075 34.1081 26.2777 34.8838L26.9243 32.9912ZM26.9874 33.015L26.9724 33.009L26.2296 34.866L26.2446 34.872L26.9874 33.015ZM27.4827 33.1634C27.2992 33.1132 27.1173 33.0576 26.9372 32.9965L26.2948 34.8905C26.5129 34.9645 26.7332 35.0319 26.9553 35.0926L27.4827 33.1634ZM24.4663 34.3677C24.4668 34.368 24.4673 34.3683 24.4666 34.3679C24.4663 34.3678 24.465 34.367 24.4635 34.3662L23.5219 36.1307C23.5214 36.1304 23.5209 36.1302 23.5216 36.1306C23.5219 36.1307 23.5232 36.1315 23.5247 36.1323L24.4663 34.3677ZM22.9955 35.2485V35.25H24.9955V35.2485H22.9955ZM23.9927 36.2485H23.9955V34.2485H23.9927V36.2485ZM24.4646 34.3669C23.4468 33.822 22.5145 33.1306 21.6976 32.3149L20.2844 33.7301C21.2399 34.6842 22.3303 35.4929 23.5207 36.1301L24.4646 34.3669ZM21.3795 36.2485H23.9927V34.2485H21.3795V36.2485ZM21.2911 36.2851C21.3146 36.2617 21.3464 36.2485 21.3795 36.2485V34.2485C20.8159 34.2485 20.2754 34.4724 19.8769 34.8709L21.2911 36.2851ZM21.2545 36.3735C21.2545 36.3404 21.2677 36.3086 21.2911 36.2851L19.8769 34.8709C19.4784 35.2694 19.2545 35.8099 19.2545 36.3735H21.2545ZM21.2545 37.239V36.3735H19.2545V37.239H21.2545ZM21.8245 38.7821C21.4567 38.352 21.2546 37.8047 21.2545 37.2388L19.2545 37.2391C19.2547 38.2816 19.627 39.2897 20.3045 40.0819L21.8245 38.7821ZM30 41.7515C26.0674 41.7515 23.4491 40.6842 21.8249 38.7825L20.3041 40.0815C22.4389 42.5808 25.7186 43.7515 30 43.7515V41.7515ZM38.1849 38.7801C36.5544 40.6843 33.9338 41.7515 30 41.7515V43.7515C34.2832 43.7515 37.5636 42.5807 39.7041 40.0809L38.1849 38.7801ZM38.756 37.2358C38.7559 37.8022 38.5533 38.3499 38.1849 38.7801L39.7041 40.0809C40.3827 39.2885 40.7558 38.2796 40.756 37.2362L38.756 37.2358ZM38.756 36.3735V37.236H40.756V36.3735H38.756ZM38.7194 36.2851C38.7428 36.3085 38.756 36.3403 38.756 36.3735H40.756C40.756 35.8099 40.5321 35.2694 40.1336 34.8709L38.7194 36.2851ZM38.631 36.2485C38.6641 36.2485 38.6959 36.2617 38.7194 36.2851L40.1336 34.8709C39.7351 34.4724 39.1946 34.2485 38.631 34.2485V36.2485ZM34.7445 36.2485H38.631V34.2485H34.7445V36.2485ZM34.25 32.9985C34.25 33.6551 34.1039 34.2699 33.8423 34.8173L35.6467 35.6797C36.0361 34.8651 36.25 33.9559 36.25 32.9985H34.25ZM38.6325 31.9985H35.25V33.9985H38.6325V31.9985ZM40.3065 32.3322C39.7759 32.1121 39.2073 31.9988 38.6329 31.9985L38.6321 33.9985C38.9437 33.9986 39.2524 34.0602 39.5403 34.1796L40.3065 32.3322ZM41.7249 33.2808C41.319 32.8745 40.837 32.5522 40.3065 32.3322L39.5403 34.1796C39.8282 34.299 40.0898 34.4739 40.3101 34.6944L41.7249 33.2808ZM42.6723 34.7001C42.4528 34.1694 42.1308 33.6871 41.7249 33.2808L40.3101 34.6944C40.5304 34.9149 40.7051 35.1767 40.8242 35.4647L42.6723 34.7001ZM43.0045 36.3739C43.0048 35.7996 42.8919 35.2308 42.6723 34.7001L40.8242 35.4647C40.9434 35.7527 41.0046 36.0614 41.0045 36.3731L43.0045 36.3739ZM43.0045 37.236V36.3735H41.0045V37.236H43.0045ZM41.4127 41.5432C42.4398 40.3432 43.0043 38.8157 43.0045 37.2361L41.0045 37.2359C41.0044 38.3386 40.6103 39.405 39.8933 40.2428L41.4127 41.5432ZM30 46.003C34.9097 46.003 38.812 44.5832 41.4129 41.5431L39.8931 40.2429C37.787 42.7048 34.5284 44.003 30 44.003V46.003ZM18.5925 41.5424C21.1891 44.5833 25.0905 46.003 30 46.003V44.003C25.4715 44.003 22.2149 42.7047 20.1135 40.2436L18.5925 41.5424ZM17.006 37.2405C17.006 38.8162 17.5677 40.3426 18.5926 41.5425L20.1134 40.2435C19.3983 39.4064 19.006 38.3408 19.006 37.2405H17.006ZM17.006 36.3735V37.2405H19.006V36.3735H17.006ZM18.1142 33.4649C17.4008 34.2657 17.0064 35.3006 17.006 36.3731L19.006 36.3739C19.0062 35.7917 19.2203 35.2299 19.6076 34.7952L18.1142 33.4649ZM20.8754 32.0292C19.8102 32.1531 18.8275 32.664 18.1141 33.4649L19.6076 34.7952C19.9948 34.3604 20.5283 34.0831 21.1066 34.0158L20.8754 32.0292ZM25 24.0003C25.0002 23.1378 25.2235 22.2901 25.6482 21.5395L23.9075 20.5546C23.3129 21.6055 23.0003 22.7923 23 23.9997L25 24.0003ZM25.5808 26.3455C25.1979 25.6238 24.9984 24.819 25 24.002L23 23.998C22.9978 25.1432 23.2774 26.2714 23.8142 27.283L25.5808 26.3455ZM27.196 28.1403C26.5185 27.6836 25.9638 27.0672 25.5808 26.3455L23.8142 27.283C24.351 28.2946 25.1284 29.1586 26.078 29.7987L27.196 28.1403ZM30 26.75C28.4759 26.75 27.0776 27.2971 25.9953 28.2025L27.2787 29.7365C28.0144 29.1209 28.9621 28.75 30 28.75V26.75ZM34.0064 28.2027C32.8829 27.2622 31.4637 26.7478 29.9985 26.75L30.0015 28.75C30.9963 28.7485 31.9598 29.0977 32.7226 29.7363L34.0064 28.2027ZM34.4783 26.2254C34.0947 26.9978 33.5178 27.6579 32.8037 28.1415L33.9253 29.7975C34.925 29.1204 35.7326 28.1963 36.2696 27.1149L34.4783 26.2254ZM34.9928 23.7332C35.0391 24.5944 34.8618 25.4529 34.4783 26.2254L36.2696 27.1149C36.8066 26.0335 37.0547 24.8315 36.9899 23.6258L34.9928 23.7332ZM34.2141 21.3106C34.6782 22.0374 34.9465 22.872 34.9928 23.7332L36.9899 23.6259C36.9251 22.4202 36.5495 21.2518 35.8997 20.2341L34.2141 21.3106ZM32.3438 19.585C33.1056 19.9892 33.7499 20.5837 34.2141 21.3106L35.8997 20.2341C35.2499 19.2165 34.3478 18.3843 33.2813 17.8183L32.3438 19.585ZM29.8664 19.0034C30.7285 18.9803 31.582 19.1807 32.3438 19.585L33.2813 17.8183C32.2148 17.2523 31.02 16.9718 29.813 17.0041L29.8664 19.0034ZM27.4236 19.7164C28.1628 19.2721 29.0043 19.0264 29.8664 19.0034L29.813 17.0041C28.606 17.0363 27.4279 17.3803 26.3931 18.0024L27.4236 19.7164ZM25.6482 21.5395C26.0729 20.7889 26.6845 20.1608 27.4236 19.7164L26.3931 18.0024C25.3583 18.6245 24.5021 19.5038 23.9075 20.5546L25.6482 21.5395ZM26.6412 27.3588C27.532 28.2496 28.7402 28.75 30 28.75V26.75C29.2707 26.75 28.5712 26.4603 28.0555 25.9445L26.6412 27.3588ZM25.25 24C25.25 25.2598 25.7504 26.468 26.6412 27.3588L28.0555 25.9445C27.5397 25.4288 27.25 24.7293 27.25 24H25.25ZM26.6412 20.6412C25.7504 21.532 25.25 22.7402 25.25 24H27.25C27.25 23.2707 27.5397 22.5712 28.0555 22.0555L26.6412 20.6412ZM30 19.25C28.7402 19.25 27.532 19.7504 26.6412 20.6412L28.0555 22.0555C28.5712 21.5397 29.2707 21.25 30 21.25V19.25ZM33.3588 20.6412C32.468 19.7504 31.2598 19.25 30 19.25V21.25C30.7293 21.25 31.4288 21.5397 31.9445 22.0555L33.3588 20.6412ZM34.75 24C34.75 22.7402 34.2496 21.532 33.3588 20.6412L31.9445 22.0555C32.4603 22.5712 32.75 23.2707 32.75 24H34.75ZM33.3588 27.3588C34.2496 26.468 34.75 25.2598 34.75 24H32.75C32.75 24.7293 32.4603 25.4288 31.9445 25.9445L33.3588 27.3588ZM30 28.75C31.2598 28.75 32.468 28.2496 33.3588 27.3588L31.9445 25.9445C31.4288 26.4603 30.7293 26.75 30 26.75V28.75Z" fill="white" fill-opacity="0.3" style="mix-blend-mode:overlay" mask="url(#path-1-inside-1_284_1555)"/>
</g>
<defs>
<filter id="filter0_b_284_1555" x="-12" y="-12" width="84" height="84" filterUnits="userSpaceOnUse" color-interpolation-filters="sRGB">
<feFlood flood-opacity="0" result="BackgroundImageFix"/>
<feGaussianBlur in="BackgroundImageFix" stdDeviation="6"/>
<feComposite in2="SourceAlpha" operator="in" result="effect1_backgroundBlur_284_1555"/>
<feBlend mode="normal" in="SourceGraphic" in2="effect1_backgroundBlur_284_1555" result="shape"/>
</filter>
<linearGradient id="paint0_linear_284_1555" x1="50.9302" y1="48.8372" x2="-36.0719" y2="29.4768" gradientUnits="userSpaceOnUse">
<stop stop-color="#BC0064"/>
<stop offset="1" stop-color="#FCF0FD" stop-opacity="0.1"/>
</linearGradient>
</defs>
</svg>
