<svg width="60" height="60" viewBox="0 0 60 60" fill="none" xmlns="http://www.w3.org/2000/svg">
<g filter="url(#filter0_b_284_1445)">
<mask id="path-1-inside-1_284_1445" fill="white">
<path fill-rule="evenodd" clip-rule="evenodd" d="M30 60C46.5685 60 60 46.5685 60 30C60 13.4315 46.5685 0 30 0C13.4315 0 0 13.4315 0 30C0 46.5685 13.4315 60 30 60ZM27.4016 18.0984C26.6984 17.3951 25.7446 17 24.75 17L24.387 17.009C23.4912 17.0637 22.6322 17.385 21.9204 17.9316C21.2086 18.4782 20.6765 19.2252 20.3925 20.0765L15.591 34.484C15.1793 35.402 14.978 36.4005 15.0019 37.4064C15.0258 38.4122 15.2742 39.4 15.7291 40.2975C16.1839 41.195 16.8336 41.9794 17.6307 42.5934C18.4277 43.2074 19.352 43.6355 20.3358 43.8463C21.3196 44.0571 22.3381 44.0453 23.3167 43.8118C24.2954 43.5782 25.2095 43.1289 25.9921 42.4965C26.7747 41.8642 27.4061 41.0649 27.84 40.1572C28.2739 39.2494 28.4994 38.2561 28.5 37.25V26H31.5V37.25C31.5006 38.2561 31.7261 39.2494 32.16 40.1572C32.5939 41.0649 33.2253 41.8642 34.0079 42.4965C34.7905 43.1289 35.7046 43.5782 36.6833 43.8118C37.6619 44.0453 38.6804 44.0571 39.6642 43.8463C40.648 43.6355 41.5723 43.2074 42.3693 42.5934C43.1664 41.9794 43.8161 41.195 44.2709 40.2975C44.7258 39.4 44.9742 38.4122 44.9981 37.4064C45.022 36.4005 44.8207 35.402 44.409 34.484L39.606 20.0765C39.3073 19.1808 38.7345 18.4018 37.9686 17.8497C37.2028 17.2975 36.2826 17.0003 35.3385 17L35.004 17.0075C34.054 17.07 33.1633 17.4914 32.5126 18.1864C31.8618 18.8814 31.4999 19.7979 31.5 20.75V23H28.5V20.75C28.5 19.7554 28.1049 18.8016 27.4016 18.0984ZM19.7634 34.0685C20.3593 33.6967 21.0476 33.4997 21.75 33.5C22.4917 33.5 23.2167 33.7199 23.8334 34.132C24.4501 34.544 24.9307 35.1297 25.2145 35.8149C25.4984 36.5002 25.5726 37.2542 25.4279 37.9816C25.2832 38.709 24.9261 39.3772 24.4016 39.9016C23.8772 40.4261 23.209 40.7832 22.4816 40.9279C21.7542 41.0726 21.0002 40.9984 20.3149 40.7145C19.6297 40.4307 19.044 39.9501 18.632 39.3334C18.2199 38.7167 18 37.9917 18 37.25C18 36.7254 18.1572 36.2608 18.3213 35.7758C18.3407 35.7185 18.3602 35.661 18.3795 35.603C18.688 34.972 19.1675 34.4403 19.7634 34.0685ZM36.1666 34.132C36.7833 33.7199 37.5083 33.5 38.25 33.5C38.9524 33.4997 39.6407 33.6967 40.2366 34.0685C40.8325 34.4403 41.312 34.972 41.6205 35.603C41.6396 35.6602 41.6588 35.717 41.6779 35.7735C41.8423 36.2596 42 36.7259 42 37.25C42 37.9917 41.7801 38.7167 41.368 39.3334C40.956 39.9501 40.3703 40.4307 39.6851 40.7145C38.9998 40.9984 38.2458 41.0726 37.5184 40.9279C36.791 40.7832 36.1228 40.4261 35.5983 39.9016C35.0739 39.3772 34.7167 38.709 34.5721 37.9816C34.4274 37.2542 34.5016 36.5002 34.7854 35.8149C35.0693 35.1297 35.5499 34.544 36.1666 34.132ZM23.2395 21.026C23.46 20.3645 24.075 20 24.75 20C24.9489 20 25.1397 20.079 25.2803 20.2197C25.421 20.3603 25.5 20.5511 25.5 20.75V31.637C24.7013 31.1039 23.7981 30.747 22.8507 30.5903C21.9033 30.4336 20.9334 30.4805 20.0055 30.728L23.2395 21.026ZM34.5 20.75C34.5 20.2747 34.9002 20.0002 35.338 20C35.6526 20.0001 35.9592 20.0992 36.2144 20.2831C36.4699 20.4673 36.661 20.7272 36.7605 21.026L39.9945 30.728C39.0666 30.4806 38.0967 30.4337 37.1493 30.5904C36.2019 30.7472 35.2987 31.1039 34.5 31.637V20.75ZM35.338 20C35.3382 20 35.3383 20 35.3385 20H35.3377C35.3378 20 35.3379 20 35.338 20Z"/>
</mask>
<path fill-rule="evenodd" clip-rule="evenodd" d="M30 60C46.5685 60 60 46.5685 60 30C60 13.4315 46.5685 0 30 0C13.4315 0 0 13.4315 0 30C0 46.5685 13.4315 60 30 60ZM27.4016 18.0984C26.6984 17.3951 25.7446 17 24.75 17L24.387 17.009C23.4912 17.0637 22.6322 17.385 21.9204 17.9316C21.2086 18.4782 20.6765 19.2252 20.3925 20.0765L15.591 34.484C15.1793 35.402 14.978 36.4005 15.0019 37.4064C15.0258 38.4122 15.2742 39.4 15.7291 40.2975C16.1839 41.195 16.8336 41.9794 17.6307 42.5934C18.4277 43.2074 19.352 43.6355 20.3358 43.8463C21.3196 44.0571 22.3381 44.0453 23.3167 43.8118C24.2954 43.5782 25.2095 43.1289 25.9921 42.4965C26.7747 41.8642 27.4061 41.0649 27.84 40.1572C28.2739 39.2494 28.4994 38.2561 28.5 37.25V26H31.5V37.25C31.5006 38.2561 31.7261 39.2494 32.16 40.1572C32.5939 41.0649 33.2253 41.8642 34.0079 42.4965C34.7905 43.1289 35.7046 43.5782 36.6833 43.8118C37.6619 44.0453 38.6804 44.0571 39.6642 43.8463C40.648 43.6355 41.5723 43.2074 42.3693 42.5934C43.1664 41.9794 43.8161 41.195 44.2709 40.2975C44.7258 39.4 44.9742 38.4122 44.9981 37.4064C45.022 36.4005 44.8207 35.402 44.409 34.484L39.606 20.0765C39.3073 19.1808 38.7345 18.4018 37.9686 17.8497C37.2028 17.2975 36.2826 17.0003 35.3385 17L35.004 17.0075C34.054 17.07 33.1633 17.4914 32.5126 18.1864C31.8618 18.8814 31.4999 19.7979 31.5 20.75V23H28.5V20.75C28.5 19.7554 28.1049 18.8016 27.4016 18.0984ZM19.7634 34.0685C20.3593 33.6967 21.0476 33.4997 21.75 33.5C22.4917 33.5 23.2167 33.7199 23.8334 34.132C24.4501 34.544 24.9307 35.1297 25.2145 35.8149C25.4984 36.5002 25.5726 37.2542 25.4279 37.9816C25.2832 38.709 24.9261 39.3772 24.4016 39.9016C23.8772 40.4261 23.209 40.7832 22.4816 40.9279C21.7542 41.0726 21.0002 40.9984 20.3149 40.7145C19.6297 40.4307 19.044 39.9501 18.632 39.3334C18.2199 38.7167 18 37.9917 18 37.25C18 36.7254 18.1572 36.2608 18.3213 35.7758C18.3407 35.7185 18.3602 35.661 18.3795 35.603C18.688 34.972 19.1675 34.4403 19.7634 34.0685ZM36.1666 34.132C36.7833 33.7199 37.5083 33.5 38.25 33.5C38.9524 33.4997 39.6407 33.6967 40.2366 34.0685C40.8325 34.4403 41.312 34.972 41.6205 35.603C41.6396 35.6602 41.6588 35.717 41.6779 35.7735C41.8423 36.2596 42 36.7259 42 37.25C42 37.9917 41.7801 38.7167 41.368 39.3334C40.956 39.9501 40.3703 40.4307 39.6851 40.7145C38.9998 40.9984 38.2458 41.0726 37.5184 40.9279C36.791 40.7832 36.1228 40.4261 35.5983 39.9016C35.0739 39.3772 34.7167 38.709 34.5721 37.9816C34.4274 37.2542 34.5016 36.5002 34.7854 35.8149C35.0693 35.1297 35.5499 34.544 36.1666 34.132ZM23.2395 21.026C23.46 20.3645 24.075 20 24.75 20C24.9489 20 25.1397 20.079 25.2803 20.2197C25.421 20.3603 25.5 20.5511 25.5 20.75V31.637C24.7013 31.1039 23.7981 30.747 22.8507 30.5903C21.9033 30.4336 20.9334 30.4805 20.0055 30.728L23.2395 21.026ZM34.5 20.75C34.5 20.2747 34.9002 20.0002 35.338 20C35.6526 20.0001 35.9592 20.0992 36.2144 20.2831C36.4699 20.4673 36.661 20.7272 36.7605 21.026L39.9945 30.728C39.0666 30.4806 38.0967 30.4337 37.1493 30.5904C36.2019 30.7472 35.2987 31.1039 34.5 31.637V20.75ZM35.338 20C35.3382 20 35.3383 20 35.3385 20H35.3377C35.3378 20 35.3379 20 35.338 20Z" fill="url(#paint0_linear_284_1445)" fill-opacity="0.7"/>
<path d="M24.75 17V16H24.7376L24.7252 16.0003L24.75 17ZM24.387 17.009L24.3622 16.0093L24.3441 16.0098L24.3261 16.0109L24.387 17.009ZM21.9204 17.9316L21.3114 17.1385V17.1385L21.9204 17.9316ZM20.3925 20.0765L19.4439 19.76L19.4438 19.7603L20.3925 20.0765ZM15.591 34.484L16.5034 34.8932L16.5239 34.8476L16.5397 34.8002L15.591 34.484ZM15.0019 37.4064L16.0016 37.3826V37.3826L15.0019 37.4064ZM15.7291 40.2975L16.6211 39.8454L15.7291 40.2975ZM17.6307 42.5934L17.0204 43.3856H17.0204L17.6307 42.5934ZM25.9921 42.4965L25.3636 41.7187L25.3636 41.7187L25.9921 42.4965ZM27.84 40.1572L28.7422 40.5885L27.84 40.1572ZM28.5 37.25L29.5 37.2506V37.25H28.5ZM28.5 26V25H27.5V26H28.5ZM31.5 26H32.5V25H31.5V26ZM31.5 37.25H30.5V37.2506L31.5 37.25ZM32.16 40.1572L31.2578 40.5885V40.5885L32.16 40.1572ZM34.0079 42.4965L34.6364 41.7187L34.0079 42.4965ZM42.3693 42.5934L41.759 41.8012V41.8012L42.3693 42.5934ZM44.2709 40.2975L45.1629 40.7495H45.1629L44.2709 40.2975ZM44.9981 37.4064L43.9984 37.3826V37.3826L44.9981 37.4064ZM44.409 34.484L43.4603 34.8003L43.4761 34.8476L43.4966 34.8932L44.409 34.484ZM39.606 20.0765L40.5547 19.7602L40.5546 19.7602L39.606 20.0765ZM37.9686 17.8497L37.3839 18.6609L37.9686 17.8497ZM35.3385 17L35.3388 16L35.3274 16L35.3161 16.0003L35.3385 17ZM35.004 17.0075L34.9816 16.0078L34.96 16.0082L34.9384 16.0097L35.004 17.0075ZM31.5 20.75H32.5L32.5 20.7498L31.5 20.75ZM31.5 23V24H32.5V23H31.5ZM28.5 23H27.5V24H28.5V23ZM21.75 33.5L21.7496 34.5H21.75V33.5ZM19.7634 34.0685L20.2927 34.9169L20.2927 34.9169L19.7634 34.0685ZM24.4016 39.9016L23.6945 39.1945L23.6945 39.1945L24.4016 39.9016ZM18.632 39.3334L19.4635 38.7778L19.4635 38.7778L18.632 39.3334ZM18.3213 35.7758L19.2686 36.0963H19.2686L18.3213 35.7758ZM18.3795 35.603L17.4811 35.1638L17.4519 35.2236L17.4308 35.2868L18.3795 35.603ZM38.25 33.5V34.5H38.2504L38.25 33.5ZM40.2366 34.0685L39.7073 34.9169L39.7073 34.9169L40.2366 34.0685ZM41.6205 35.603L42.5692 35.2868L42.5481 35.2236L42.5189 35.1638L41.6205 35.603ZM41.6779 35.7735L40.7306 36.0938L40.7306 36.0938L41.6779 35.7735ZM34.5721 37.9816L33.5913 38.1767V38.1767L34.5721 37.9816ZM23.2395 21.026L24.1882 21.3422H24.1882L23.2395 21.026ZM25.2803 20.2197L25.9874 19.5126L25.9874 19.5126L25.2803 20.2197ZM25.5 31.637L24.9448 32.4687L26.5 33.5068V31.637H25.5ZM20.0055 30.728L19.0568 30.4118L18.4699 32.1726L20.2632 31.6942L20.0055 30.728ZM36.2144 20.2831L35.6297 21.0944L36.2144 20.2831ZM36.7605 21.026L35.8117 21.342L35.8118 21.3422L36.7605 21.026ZM39.9945 30.728L39.7369 31.6942L41.53 32.1724L40.9432 30.4118L39.9945 30.728ZM37.1493 30.5904L37.3125 31.577L37.1493 30.5904ZM34.5 31.637H33.5V33.5066L35.0551 32.4688L34.5 31.637ZM59 30C59 46.0163 46.0163 59 30 59V61C47.1208 61 61 47.1208 61 30H59ZM30 1C46.0163 1 59 13.9837 59 30H61C61 12.8792 47.1208 -1 30 -1V1ZM1 30C1 13.9837 13.9837 1 30 1V-1C12.8792 -1 -1 12.8792 -1 30H1ZM30 59C13.9837 59 1 46.0163 1 30H-1C-1 47.1208 12.8792 61 30 61V59ZM24.75 18C25.4793 18 26.1788 18.2897 26.6945 18.8055L28.1088 17.3912C27.218 16.5004 26.0098 16 24.75 16V18ZM24.4118 18.0087L24.7748 17.9997L24.7252 16.0003L24.3622 16.0093L24.4118 18.0087ZM22.5295 18.7247C23.0831 18.2996 23.7512 18.0497 24.4479 18.0071L24.3261 16.0109C23.2312 16.0777 22.1813 16.4704 21.3114 17.1385L22.5295 18.7247ZM21.3411 20.393C21.562 19.7308 21.9759 19.1499 22.5295 18.7247L21.3114 17.1385C20.4414 17.8065 19.791 18.7195 19.4439 19.76L21.3411 20.393ZM16.5397 34.8002L21.3412 20.3927L19.4438 19.7603L14.6423 34.1678L16.5397 34.8002ZM16.0016 37.3826C15.9813 36.5258 16.1527 35.6752 16.5034 34.8932L14.6786 34.0748C14.2058 35.1289 13.9748 36.2752 14.0022 37.4301L16.0016 37.3826ZM16.6211 39.8454C16.2336 39.0809 16.022 38.2395 16.0016 37.3826L14.0022 37.4301C14.0296 38.585 14.3149 39.7191 14.8371 40.7495L16.6211 39.8454ZM18.2409 41.8012C17.562 41.2782 17.0085 40.6099 16.6211 39.8454L14.8371 40.7495C15.3593 41.78 16.1053 42.6806 17.0204 43.3856L18.2409 41.8012ZM20.5453 42.8685C19.7072 42.6889 18.9199 42.3243 18.2409 41.8012L17.0204 43.3856C17.9355 44.0906 18.9967 44.5821 20.1263 44.8241L20.5453 42.8685ZM23.0846 42.8391C22.251 43.038 21.3834 43.0481 20.5453 42.8685L20.1263 44.8241C21.2558 45.0661 22.4252 45.0526 23.5489 44.7844L23.0846 42.8391ZM25.3636 41.7187C24.697 42.2573 23.9183 42.6401 23.0846 42.8391L23.5489 44.7844C24.6725 44.5163 25.722 44.0004 26.6206 43.2744L25.3636 41.7187ZM26.9378 39.7259C26.5681 40.4992 26.0303 41.1801 25.3636 41.7187L26.6206 43.2744C27.5191 42.5484 28.244 41.6307 28.7422 40.5885L26.9378 39.7259ZM27.5 37.2494C27.4995 38.1065 27.3074 38.9526 26.9378 39.7259L28.7422 40.5885C29.2404 39.5462 29.4993 38.4058 29.5 37.2506L27.5 37.2494ZM27.5 26V37.25H29.5V26H27.5ZM31.5 25H28.5V27H31.5V25ZM32.5 37.25V26H30.5V37.25H32.5ZM33.0622 39.7259C32.6926 38.9526 32.5005 38.1065 32.5 37.2494L30.5 37.2506C30.5007 38.4058 30.7596 39.5462 31.2578 40.5885L33.0622 39.7259ZM34.6364 41.7187C33.9697 41.1801 33.4319 40.4992 33.0622 39.7259L31.2578 40.5885C31.756 41.6307 32.4809 42.5484 33.3794 43.2744L34.6364 41.7187ZM36.9154 42.8391C36.0817 42.6401 35.303 42.2573 34.6364 41.7187L33.3794 43.2744C34.278 44.0004 35.3275 44.5163 36.4511 44.7844L36.9154 42.8391ZM39.4547 42.8685C38.6166 43.0481 37.749 43.038 36.9154 42.8391L36.4511 44.7844C37.5748 45.0526 38.7442 45.0661 39.8737 44.8241L39.4547 42.8685ZM41.759 41.8012C41.0801 42.3243 40.2928 42.6889 39.4547 42.8685L39.8737 44.8241C41.0033 44.5821 42.0645 44.0906 42.9796 43.3856L41.759 41.8012ZM43.3789 39.8454C42.9915 40.6099 42.438 41.2782 41.759 41.8012L42.9796 43.3856C43.8947 42.6806 44.6407 41.78 45.1629 40.7495L43.3789 39.8454ZM43.9984 37.3826C43.978 38.2395 43.7664 39.0809 43.3789 39.8454L45.1629 40.7495C45.6851 39.7191 45.9704 38.585 45.9978 37.4301L43.9984 37.3826ZM43.4966 34.8932C43.8473 35.6752 44.0187 36.5258 43.9984 37.3826L45.9978 37.4301C46.0252 36.2753 45.7942 35.1289 45.3214 34.0748L43.4966 34.8932ZM38.6573 20.3928L43.4603 34.8003L45.3577 34.1677L40.5547 19.7602L38.6573 20.3928ZM37.3839 18.6609C37.9795 19.0903 38.4251 19.6962 38.6574 20.3928L40.5546 19.7602C40.1896 18.6655 39.4895 17.7133 38.5534 17.0385L37.3839 18.6609ZM35.3382 18C36.0725 18.0002 36.7882 18.2314 37.3839 18.6609L38.5534 17.0385C37.6174 16.3637 36.4928 16.0004 35.3388 16L35.3382 18ZM35.0264 18.0072L35.3609 17.9997L35.3161 16.0003L34.9816 16.0078L35.0264 18.0072ZM33.2425 18.8699C33.7197 18.3602 34.3729 18.0511 35.0696 18.0053L34.9384 16.0097C33.735 16.0888 32.6068 16.6226 31.7826 17.503L33.2425 18.8699ZM32.5 20.7498C32.4999 20.0517 32.7654 19.3796 33.2425 18.8699L31.7826 17.503C30.9583 18.3833 30.4998 19.5442 30.5 20.7502L32.5 20.7498ZM32.5 23V20.75H30.5V23H32.5ZM28.5 24H31.5V22H28.5V24ZM27.5 20.75V23H29.5V20.75H27.5ZM26.6945 18.8055C27.2103 19.3212 27.5 20.0207 27.5 20.75H29.5C29.5 19.4902 28.9996 18.282 28.1088 17.3912L26.6945 18.8055ZM21.7504 32.5C20.8607 32.4996 19.9888 32.7491 19.234 33.2201L20.2927 34.9169C20.7297 34.6442 21.2345 34.4998 21.7496 34.5L21.7504 32.5ZM24.389 33.3005C23.6078 32.7786 22.6895 32.5 21.75 32.5V34.5C22.2939 34.5 22.8256 34.6613 23.2778 34.9635L24.389 33.3005ZM26.1384 35.4323C25.7789 34.5643 25.1701 33.8225 24.389 33.3005L23.2778 34.9635C23.7301 35.2656 24.0825 35.6951 24.2907 36.1976L26.1384 35.4323ZM26.4087 38.1767C26.592 37.2553 26.4979 36.3002 26.1384 35.4323L24.2907 36.1976C24.4988 36.7001 24.5533 37.2531 24.4472 37.7865L26.4087 38.1767ZM25.1088 40.6088C25.7731 39.9445 26.2254 39.0981 26.4087 38.1767L24.4472 37.7865C24.341 38.3199 24.0791 38.81 23.6945 39.1945L25.1088 40.6088ZM22.6767 41.9087C23.5981 41.7254 24.4445 41.2731 25.1088 40.6088L23.6945 39.1945C23.3099 39.5791 22.8199 39.841 22.2865 39.9472L22.6767 41.9087ZM19.9323 41.6384C20.8002 41.9979 21.7553 42.092 22.6767 41.9087L22.2865 39.9472C21.7531 40.0533 21.2001 39.9988 20.6976 39.7907L19.9323 41.6384ZM17.8005 39.889C18.3225 40.6701 19.0643 41.2789 19.9323 41.6384L20.6976 39.7907C20.1951 39.5825 19.7656 39.2301 19.4635 38.7778L17.8005 39.889ZM17 37.25C17 38.1895 17.2786 39.1078 17.8005 39.889L19.4635 38.7778C19.1613 38.3256 19 37.7939 19 37.25H17ZM17.3741 35.4552C17.2173 35.9186 17 36.5355 17 37.25H19C19 36.9153 19.0971 36.6031 19.2686 36.0963L17.3741 35.4552ZM17.4308 35.2868C17.4123 35.3422 17.3936 35.3976 17.3741 35.4552L19.2686 36.0963C19.2878 36.0394 19.308 35.9797 19.3282 35.9192L17.4308 35.2868ZM19.234 33.2201C18.4792 33.691 17.8719 34.3645 17.4811 35.1638L19.2779 36.0422C19.5041 35.5795 19.8557 35.1896 20.2927 34.9169L19.234 33.2201ZM38.25 32.5C37.3105 32.5 36.3922 32.7786 35.611 33.3005L36.7222 34.9635C37.1744 34.6613 37.7061 34.5 38.25 34.5V32.5ZM40.766 33.2201C40.0112 32.7491 39.1393 32.4996 38.2496 32.5L38.2504 34.5C38.7655 34.4998 39.2703 34.6442 39.7073 34.9169L40.766 33.2201ZM42.5189 35.1638C42.1281 34.3645 41.5208 33.691 40.766 33.2201L39.7073 34.9169C40.1443 35.1896 40.4959 35.5795 40.7221 36.0422L42.5189 35.1638ZM42.6252 35.4531C42.6059 35.3963 42.5874 35.3415 42.5692 35.2868L40.6718 35.9192C40.6917 35.9788 40.7116 36.0377 40.7306 36.0938L42.6252 35.4531ZM43 37.25C43 36.5359 42.7821 35.917 42.6252 35.4531L40.7306 36.0938C40.9025 36.6022 41 36.9159 41 37.25H43ZM42.1995 39.889C42.7214 39.1078 43 38.1895 43 37.25H41C41 37.7939 40.8387 38.3256 40.5365 38.7778L42.1995 39.889ZM40.0677 41.6384C40.9357 41.2789 41.6775 40.6701 42.1995 39.889L40.5365 38.7778C40.2344 39.2301 39.8049 39.5825 39.3024 39.7907L40.0677 41.6384ZM37.3233 41.9087C38.2447 42.092 39.1998 41.9979 40.0677 41.6384L39.3024 39.7907C38.7999 39.9988 38.2469 40.0533 37.7135 39.9472L37.3233 41.9087ZM34.8912 40.6088C35.5555 41.2731 36.4019 41.7254 37.3233 41.9087L37.7135 39.9472C37.18 39.841 36.69 39.5791 36.3055 39.1945L34.8912 40.6088ZM33.5913 38.1767C33.7745 39.0981 34.2269 39.9445 34.8912 40.6088L36.3055 39.1945C35.9209 38.8099 35.6589 38.3199 35.5528 37.7865L33.5913 38.1767ZM33.8616 35.4323C33.5021 36.3002 33.408 37.2553 33.5913 38.1767L35.5528 37.7865C35.4467 37.2531 35.5012 36.7001 35.7093 36.1976L33.8616 35.4323ZM35.611 33.3005C34.8299 33.8225 34.2211 34.5643 33.8616 35.4323L35.7093 36.1976C35.9175 35.6951 36.2699 35.2656 36.7222 34.9635L35.611 33.3005ZM24.75 19C23.7212 19 22.6702 19.5717 22.2908 20.7098L24.1882 21.3422C24.2498 21.1573 24.4288 21 24.75 21V19ZM25.9874 19.5126C25.6592 19.1844 25.2141 19 24.75 19V21C24.6837 21 24.6201 20.9737 24.5732 20.9268L25.9874 19.5126ZM26.5 20.75C26.5 20.2859 26.3156 19.8408 25.9874 19.5126L24.5732 20.9268C24.5263 20.8799 24.5 20.8163 24.5 20.75H26.5ZM26.5 31.637V20.75H24.5V31.637H26.5ZM22.6875 31.5769C23.4948 31.7104 24.2643 32.0145 24.9448 32.4687L26.0552 30.8053C25.1383 30.1933 24.1015 29.7836 23.0139 29.6037L22.6875 31.5769ZM20.2632 31.6942C21.0538 31.4833 21.8803 31.4433 22.6875 31.5769L23.0139 29.6037C21.9263 29.4238 20.8129 29.4777 19.7478 29.7618L20.2632 31.6942ZM22.2908 20.7098L19.0568 30.4118L20.9542 31.0442L24.1882 21.3422L22.2908 20.7098ZM35.3376 19C34.5338 19.0004 33.5 19.5532 33.5 20.75H35.5C35.5 20.7747 35.494 20.8168 35.4712 20.8644C35.4489 20.9109 35.419 20.9452 35.3923 20.9673C35.3439 21.0073 35.319 21 35.3385 21L35.3376 19ZM36.7991 19.4719C36.3738 19.1653 35.8628 19.0002 35.3385 19L35.3376 21C35.4424 21 35.5446 21.0331 35.6297 21.0944L36.7991 19.4719ZM37.7093 20.71C37.5434 20.212 37.225 19.7788 36.7991 19.4719L35.6297 21.0944C35.7149 21.1558 35.7786 21.2424 35.8117 21.342L37.7093 20.71ZM40.9432 30.4118L37.7092 20.7098L35.8118 21.3422L39.0458 31.0442L40.9432 30.4118ZM37.3125 31.577C38.1198 31.4435 38.9462 31.4834 39.7369 31.6942L40.2521 29.7618C39.187 29.4778 38.0736 29.4239 36.9861 29.6038L37.3125 31.577ZM35.0551 32.4688C35.7357 32.0146 36.5053 31.7106 37.3125 31.577L36.9861 29.6038C35.8985 29.7838 34.8618 30.1933 33.9449 30.8052L35.0551 32.4688ZM33.5 20.75V31.637H35.5V20.75H33.5ZM35.3385 19C35.3385 19 35.3385 19 35.3385 19C35.3385 19 35.3385 19 35.3385 19H35.3385H35.3385C35.3385 19 35.3385 19 35.3385 19C35.3385 19 35.3385 19 35.3385 19C35.3385 19 35.3385 19 35.3385 19C35.3385 19 35.3385 19 35.3385 19H35.3385H35.3385C35.3385 19 35.3385 19 35.3385 19C35.3385 19 35.3385 19 35.3385 19C35.3384 19 35.3384 19 35.3384 19C35.3384 19 35.3384 19 35.3384 19H35.3384H35.3384C35.3384 19 35.3384 19 35.3384 19C35.3384 19 35.3384 19 35.3384 19C35.3384 19 35.3384 19 35.3384 19C35.3384 19 35.3384 19 35.3384 19C35.3384 19 35.3384 19 35.3384 19H35.3384H35.3384C35.3384 19 35.3384 19 35.3384 19C35.3384 19 35.3384 19 35.3384 19C35.3384 19 35.3384 19 35.3384 19C35.3384 19 35.3384 19 35.3384 19H35.3384H35.3384C35.3384 19 35.3384 19 35.3384 19C35.3384 19 35.3384 19 35.3384 19C35.3384 19 35.3384 19 35.3384 19C35.3384 19 35.3384 19 35.3384 19H35.3384H35.3384C35.3384 19 35.3384 19 35.3384 19C35.3384 19 35.3384 19 35.3384 19C35.3384 19 35.3384 19 35.3384 19C35.3383 19 35.3383 19 35.3383 19H35.3383H35.3383C35.3383 19 35.3383 19 35.3383 19C35.3383 19 35.3383 19 35.3383 19C35.3383 19 35.3383 19 35.3383 19C35.3383 19 35.3383 19 35.3383 19H35.3383H35.3383C35.3383 19 35.3383 19 35.3383 19C35.3383 19 35.3383 19 35.3383 19C35.3383 19 35.3383 19 35.3383 19C35.3383 19 35.3383 19 35.3383 19H35.3383H35.3383C35.3383 19 35.3383 19 35.3383 19C35.3383 19 35.3383 19 35.3383 19C35.3383 19 35.3383 19 35.3383 19C35.3383 19 35.3383 19 35.3383 19H35.3383H35.3383C35.3383 19 35.3383 19 35.3383 19C35.3383 19 35.3383 19 35.3383 19C35.3383 19 35.3383 19 35.3383 19C35.3383 19 35.3383 19 35.3383 19C35.3383 19 35.3383 19 35.3383 19H35.3382H35.3382C35.3382 19 35.3382 19 35.3382 19C35.3382 19 35.3382 19 35.3382 19C35.3382 19 35.3382 19 35.3382 19C35.3382 19 35.3382 19 35.3382 19H35.3382H35.3382C35.3382 19 35.3382 19 35.3382 19C35.3382 19 35.3382 19 35.3382 19C35.3382 19 35.3382 19 35.3382 19C35.3382 19 35.3382 19 35.3382 19H35.3382H35.3382C35.3382 19 35.3382 19 35.3382 19C35.3382 19 35.3382 19 35.3382 19C35.3382 19 35.3382 19 35.3382 19C35.3382 19 35.3382 19 35.3382 19H35.3382H35.3382C35.3382 19 35.3382 19 35.3382 19C35.3382 19 35.3382 19 35.3382 19C35.3382 19 35.3382 19 35.3382 19C35.3382 19 35.3382 19 35.3382 19H35.3382H35.3382C35.3382 19 35.3382 19 35.3382 19C35.3382 19 35.3382 19 35.3381 19C35.3381 19 35.3381 19 35.3381 19C35.3381 19 35.3381 19 35.3381 19H35.3381H35.3381C35.3381 19 35.3381 19 35.3381 19C35.3381 19 35.3381 19 35.3381 19C35.3381 19 35.3381 19 35.3381 19C35.3381 19 35.3381 19 35.3381 19H35.3381H35.3381H35.3381C35.3381 19 35.3381 19 35.3381 19C35.3381 19 35.3381 19 35.3381 19C35.3381 19 35.3381 19 35.3381 19C35.3381 19 35.3381 19 35.3381 19H35.3381H35.3381C35.3381 19 35.3381 19 35.3381 19C35.3381 19 35.3381 19 35.3381 19C35.3381 19 35.3381 19 35.3381 19C35.3381 19 35.3381 19 35.3381 19H35.3381H35.3381C35.3381 19 35.3381 19 35.3381 19C35.3381 19 35.3381 19 35.3381 19C35.338 19 35.338 19 35.338 19C35.338 19 35.338 19 35.338 19H35.338H35.338C35.338 19 35.338 19 35.338 19C35.338 19 35.338 19 35.338 19V21C35.338 21 35.338 21 35.338 21C35.338 21 35.338 21 35.338 21H35.338H35.338C35.338 21 35.338 21 35.338 21C35.338 21 35.338 21 35.3381 21C35.3381 21 35.3381 21 35.3381 21C35.3381 21 35.3381 21 35.3381 21H35.3381H35.3381C35.3381 21 35.3381 21 35.3381 21C35.3381 21 35.3381 21 35.3381 21C35.3381 21 35.3381 21 35.3381 21C35.3381 21 35.3381 21 35.3381 21H35.3381H35.3381C35.3381 21 35.3381 21 35.3381 21C35.3381 21 35.3381 21 35.3381 21C35.3381 21 35.3381 21 35.3381 21C35.3381 21 35.3381 21 35.3381 21H35.3381H35.3381H35.3381C35.3381 21 35.3381 21 35.3381 21C35.3381 21 35.3381 21 35.3381 21C35.3381 21 35.3381 21 35.3381 21C35.3381 21 35.3381 21 35.3381 21H35.3381H35.3381C35.3381 21 35.3381 21 35.3381 21C35.3381 21 35.3381 21 35.3381 21C35.3382 21 35.3382 21 35.3382 21C35.3382 21 35.3382 21 35.3382 21H35.3382H35.3382C35.3382 21 35.3382 21 35.3382 21C35.3382 21 35.3382 21 35.3382 21C35.3382 21 35.3382 21 35.3382 21C35.3382 21 35.3382 21 35.3382 21H35.3382H35.3382C35.3382 21 35.3382 21 35.3382 21C35.3382 21 35.3382 21 35.3382 21C35.3382 21 35.3382 21 35.3382 21C35.3382 21 35.3382 21 35.3382 21H35.3382H35.3382C35.3382 21 35.3382 21 35.3382 21C35.3382 21 35.3382 21 35.3382 21C35.3382 21 35.3382 21 35.3382 21C35.3382 21 35.3382 21 35.3382 21H35.3382H35.3382C35.3382 21 35.3382 21 35.3382 21C35.3382 21 35.3382 21 35.3382 21C35.3382 21 35.3382 21 35.3382 21C35.3382 21 35.3382 21 35.3382 21H35.3382H35.3383C35.3383 21 35.3383 21 35.3383 21C35.3383 21 35.3383 21 35.3383 21C35.3383 21 35.3383 21 35.3383 21C35.3383 21 35.3383 21 35.3383 21C35.3383 21 35.3383 21 35.3383 21H35.3383H35.3383C35.3383 21 35.3383 21 35.3383 21C35.3383 21 35.3383 21 35.3383 21C35.3383 21 35.3383 21 35.3383 21C35.3383 21 35.3383 21 35.3383 21H35.3383H35.3383C35.3383 21 35.3383 21 35.3383 21C35.3383 21 35.3383 21 35.3383 21C35.3383 21 35.3383 21 35.3383 21C35.3383 21 35.3383 21 35.3383 21H35.3383H35.3383C35.3383 21 35.3383 21 35.3383 21C35.3383 21 35.3383 21 35.3383 21C35.3383 21 35.3383 21 35.3383 21C35.3383 21 35.3383 21 35.3383 21H35.3383H35.3383C35.3383 21 35.3383 21 35.3384 21C35.3384 21 35.3384 21 35.3384 21C35.3384 21 35.3384 21 35.3384 21C35.3384 21 35.3384 21 35.3384 21H35.3384H35.3384C35.3384 21 35.3384 21 35.3384 21C35.3384 21 35.3384 21 35.3384 21C35.3384 21 35.3384 21 35.3384 21C35.3384 21 35.3384 21 35.3384 21H35.3384H35.3384C35.3384 21 35.3384 21 35.3384 21C35.3384 21 35.3384 21 35.3384 21C35.3384 21 35.3384 21 35.3384 21C35.3384 21 35.3384 21 35.3384 21H35.3384H35.3384C35.3384 21 35.3384 21 35.3384 21C35.3384 21 35.3384 21 35.3384 21C35.3384 21 35.3384 21 35.3384 21C35.3384 21 35.3384 21 35.3384 21C35.3384 21 35.3384 21 35.3384 21H35.3384H35.3384C35.3384 21 35.3384 21 35.3384 21C35.3384 21 35.3384 21 35.3385 21C35.3385 21 35.3385 21 35.3385 21C35.3385 21 35.3385 21 35.3385 21H35.3385H35.3385C35.3385 21 35.3385 21 35.3385 21C35.3385 21 35.3385 21 35.3385 21C35.3385 21 35.3385 21 35.3385 21C35.3385 21 35.3385 21 35.3385 21H35.3385H35.3385C35.3385 21 35.3385 21 35.3385 21C35.3385 21 35.3385 21 35.3385 21V19ZM35.3377 21H35.3385V19H35.3377V21ZM35.338 19C35.338 19 35.338 19 35.338 19H35.338C35.338 19 35.338 19 35.338 19C35.338 19 35.338 19 35.338 19H35.338C35.338 19 35.338 19 35.338 19C35.338 19 35.338 19 35.338 19C35.338 19 35.338 19 35.338 19C35.338 19 35.338 19 35.338 19H35.338C35.338 19 35.338 19 35.338 19H35.338C35.338 19 35.338 19 35.338 19C35.338 19 35.338 19 35.338 19C35.338 19 35.338 19 35.338 19C35.338 19 35.338 19 35.338 19C35.338 19 35.338 19 35.338 19C35.338 19 35.338 19 35.338 19H35.338C35.338 19 35.338 19 35.338 19H35.3379C35.3379 19 35.3379 19 35.3379 19C35.3379 19 35.3379 19 35.3379 19C35.3379 19 35.3379 19 35.3379 19C35.3379 19 35.3379 19 35.3379 19C35.3379 19 35.3379 19 35.3379 19C35.3379 19 35.3379 19 35.3379 19C35.3379 19 35.3379 19 35.3379 19C35.3379 19 35.3379 19 35.3379 19H35.3379C35.3379 19 35.3379 19 35.3379 19H35.3379C35.3379 19 35.3379 19 35.3379 19H35.3379C35.3379 19 35.3379 19 35.3379 19C35.3379 19 35.3379 19 35.3379 19C35.3379 19 35.3379 19 35.3379 19C35.3379 19 35.3379 19 35.3379 19H35.3379C35.3379 19 35.3379 19 35.3379 19H35.3379C35.3379 19 35.3379 19 35.3379 19C35.3379 19 35.3379 19 35.3379 19C35.3379 19 35.3379 19 35.3379 19C35.3379 19 35.3379 19 35.3379 19H35.3379C35.3379 19 35.3379 19 35.3378 19H35.3378C35.3378 19 35.3378 19 35.3378 19H35.3378C35.3378 19 35.3378 19 35.3378 19C35.3378 19 35.3378 19 35.3378 19C35.3378 19 35.3378 19 35.3378 19C35.3378 19 35.3378 19 35.3378 19C35.3378 19 35.3378 19 35.3378 19C35.3378 19 35.3378 19 35.3378 19C35.3378 19 35.3378 19 35.3378 19C35.3378 19 35.3378 19 35.3378 19H35.3378C35.3378 19 35.3378 19 35.3378 19H35.3378C35.3378 19 35.3378 19 35.3378 19C35.3378 19 35.3378 19 35.3378 19C35.3378 19 35.3378 19 35.3378 19C35.3378 19 35.3378 19 35.3378 19C35.3378 19 35.3378 19 35.3378 19C35.3378 19 35.3378 19 35.3378 19H35.3378C35.3378 19 35.3378 19 35.3378 19H35.3378C35.3378 19 35.3378 19 35.3378 19C35.3378 19 35.3378 19 35.3378 19C35.3378 19 35.3378 19 35.3377 19C35.3377 19 35.3377 19 35.3377 19H35.3377C35.3377 19 35.3377 19 35.3377 19C35.3377 19 35.3377 19 35.3377 19H35.3377C35.3377 19 35.3377 19 35.3377 19V21C35.3377 21 35.3377 21 35.3377 21H35.3377C35.3377 21 35.3377 21 35.3377 21C35.3377 21 35.3377 21 35.3377 21H35.3377C35.3377 21 35.3377 21 35.3377 21C35.3378 21 35.3378 21 35.3378 21C35.3378 21 35.3378 21 35.3378 21C35.3378 21 35.3378 21 35.3378 21H35.3378C35.3378 21 35.3378 21 35.3378 21H35.3378C35.3378 21 35.3378 21 35.3378 21C35.3378 21 35.3378 21 35.3378 21C35.3378 21 35.3378 21 35.3378 21C35.3378 21 35.3378 21 35.3378 21C35.3378 21 35.3378 21 35.3378 21C35.3378 21 35.3378 21 35.3378 21H35.3378C35.3378 21 35.3378 21 35.3378 21H35.3378C35.3378 21 35.3378 21 35.3378 21C35.3378 21 35.3378 21 35.3378 21C35.3378 21 35.3378 21 35.3378 21C35.3378 21 35.3378 21 35.3378 21C35.3378 21 35.3378 21 35.3378 21C35.3378 21 35.3378 21 35.3378 21C35.3378 21 35.3378 21 35.3378 21C35.3378 21 35.3378 21 35.3378 21H35.3378C35.3378 21 35.3378 21 35.3378 21H35.3378C35.3379 21 35.3379 21 35.3379 21H35.3379C35.3379 21 35.3379 21 35.3379 21C35.3379 21 35.3379 21 35.3379 21C35.3379 21 35.3379 21 35.3379 21C35.3379 21 35.3379 21 35.3379 21H35.3379C35.3379 21 35.3379 21 35.3379 21H35.3379C35.3379 21 35.3379 21 35.3379 21C35.3379 21 35.3379 21 35.3379 21C35.3379 21 35.3379 21 35.3379 21C35.3379 21 35.3379 21 35.3379 21H35.3379C35.3379 21 35.3379 21 35.3379 21H35.3379C35.3379 21 35.3379 21 35.3379 21H35.3379C35.3379 21 35.3379 21 35.3379 21C35.3379 21 35.3379 21 35.3379 21C35.3379 21 35.3379 21 35.3379 21C35.3379 21 35.3379 21 35.3379 21C35.3379 21 35.3379 21 35.3379 21C35.3379 21 35.3379 21 35.3379 21C35.3379 21 35.3379 21 35.3379 21C35.3379 21 35.3379 21 35.3379 21H35.338C35.338 21 35.338 21 35.338 21H35.338C35.338 21 35.338 21 35.338 21C35.338 21 35.338 21 35.338 21C35.338 21 35.338 21 35.338 21C35.338 21 35.338 21 35.338 21C35.338 21 35.338 21 35.338 21C35.338 21 35.338 21 35.338 21H35.338C35.338 21 35.338 21 35.338 21H35.338C35.338 21 35.338 21 35.338 21C35.338 21 35.338 21 35.338 21C35.338 21 35.338 21 35.338 21C35.338 21 35.338 21 35.338 21H35.338C35.338 21 35.338 21 35.338 21C35.338 21 35.338 21 35.338 21H35.338C35.338 21 35.338 21 35.338 21V19Z" fill="white" fill-opacity="0.3" style="mix-blend-mode:overlay" mask="url(#path-1-inside-1_284_1445)"/>
</g>
<defs>
<filter id="filter0_b_284_1445" x="-12" y="-12" width="84" height="84" filterUnits="userSpaceOnUse" color-interpolation-filters="sRGB">
<feFlood flood-opacity="0" result="BackgroundImageFix"/>
<feGaussianBlur in="BackgroundImageFix" stdDeviation="6"/>
<feComposite in2="SourceAlpha" operator="in" result="effect1_backgroundBlur_284_1445"/>
<feBlend mode="normal" in="SourceGraphic" in2="effect1_backgroundBlur_284_1445" result="shape"/>
</filter>
<linearGradient id="paint0_linear_284_1445" x1="50.9302" y1="48.8372" x2="-36.0719" y2="29.4768" gradientUnits="userSpaceOnUse">
<stop stop-color="#F7D2FB"/>
<stop offset="1" stop-color="#FCF0FD" stop-opacity="0.1"/>
</linearGradient>
</defs>
</svg>
