<svg width="19" height="34" viewBox="0 0 19 34" fill="none" xmlns="http://www.w3.org/2000/svg">
<path d="M0.964783 0H18.4213V13.3903C18.4213 14.0674 18.2398 14.6959 17.8766 15.2759C17.5123 15.8559 17.0224 16.3312 16.4071 16.7019L10.0562 20.528L11.4538 25.0236H16.8951L12.4127 28.165L14.1735 33.68L9.69306 30.253L5.21072 33.68L6.97339 28.165L2.49105 25.0236H7.93228L9.32993 20.528L2.90713 16.7738C2.29057 16.4271 1.81271 15.9517 1.47354 15.3478C1.13311 14.7438 0.962891 14.092 0.962891 13.3922V0H0.964783ZM2.85607 1.89128V13.3903C2.85607 13.7559 2.94685 14.0901 3.12841 14.3927C3.30998 14.6953 3.55836 14.9437 3.87358 15.1378L8.74742 17.988V1.89128H2.85607ZM16.5301 1.89128H10.6387V17.988L15.5125 15.1378C15.8278 14.9437 16.0761 14.6953 16.2577 14.3927C16.4393 14.0901 16.5301 13.7559 16.5301 13.3903V1.89128Z" fill="white"/>
</svg>
